<svg width="28" height="28" viewBox="0 0 28 28" fill="none" xmlns="http://www.w3.org/2000/svg">
<g clip-path="url(#clip0)">
<path d="M18.6663 25.6665V21.1515C18.7101 20.5952 18.6349 20.036 18.4459 19.5109C18.2568 18.9859 17.9581 18.5072 17.5697 18.1065C21.233 17.6982 25.083 16.3098 25.083 9.93985C25.0827 8.31098 24.4561 6.74458 23.333 5.56485C23.8648 4.13977 23.8272 2.56459 23.228 1.16651C23.228 1.16651 21.8513 0.758179 18.6663 2.89318C15.9924 2.16847 13.1737 2.16847 10.4997 2.89318C7.31467 0.758179 5.93801 1.16651 5.93801 1.16651C5.33878 2.56459 5.30118 4.13977 5.83301 5.56485C4.70149 6.75333 4.07428 8.33389 4.08301 9.97485C4.08301 16.2982 7.93301 17.6865 11.5963 18.1415C11.2125 18.5381 10.9165 19.0112 10.7275 19.5298C10.5386 20.0484 10.4609 20.6009 10.4997 21.1515V25.6665M10.4997 22.1665C4.66634 23.9165 4.66634 19.2498 2.33301 18.6665L10.4997 22.1665Z" stroke="white" stroke-width="2.33333" stroke-linecap="round" stroke-linejoin="round"/>
</g>
<defs>
<clipPath id="clip0">
<rect width="28" height="28" fill="white"/>
</clipPath>
</defs>
</svg>
