<svg width="524" height="311" viewBox="0 0 524 311" fill="none" xmlns="http://www.w3.org/2000/svg">
<path d="M109.922 19.73C110.714 19.73 111.416 19.928 112.028 20.324C112.64 20.72 113.114 21.278 113.45 21.998C113.786 22.706 113.954 23.528 113.954 24.464C113.954 25.4 113.786 26.222 113.45 26.93C113.114 27.626 112.64 28.166 112.028 28.55C111.428 28.934 110.726 29.126 109.922 29.126C109.214 29.126 108.596 28.97 108.068 28.658C107.54 28.346 107.138 27.902 106.862 27.326V32.888H105.404V22.484C105.404 21.548 105.356 20.702 105.26 19.946H106.646L106.79 21.692C107.042 21.068 107.438 20.588 107.978 20.252C108.53 19.904 109.178 19.73 109.922 19.73ZM109.652 27.92C110.54 27.92 111.224 27.62 111.704 27.02C112.196 26.42 112.442 25.568 112.442 24.464C112.442 23.36 112.196 22.502 111.704 21.89C111.212 21.266 110.528 20.954 109.652 20.954C108.752 20.954 108.062 21.254 107.582 21.854C107.102 22.454 106.862 23.312 106.862 24.428C106.862 25.544 107.102 26.408 107.582 27.02C108.062 27.62 108.752 27.92 109.652 27.92ZM124.171 19.946V29H122.731V27.362C122.467 27.926 122.065 28.364 121.525 28.676C120.997 28.976 120.379 29.126 119.671 29.126C118.867 29.126 118.159 28.934 117.547 28.55C116.947 28.166 116.479 27.626 116.143 26.93C115.819 26.222 115.657 25.4 115.657 24.464C115.657 23.528 115.825 22.706 116.161 21.998C116.497 21.278 116.965 20.72 117.565 20.324C118.177 19.928 118.879 19.73 119.671 19.73C120.379 19.73 120.997 19.886 121.525 20.198C122.053 20.51 122.455 20.948 122.731 21.512V19.946H124.171ZM119.959 27.92C120.847 27.92 121.531 27.62 122.011 27.02C122.491 26.408 122.731 25.544 122.731 24.428C122.731 23.312 122.491 22.454 122.011 21.854C121.531 21.254 120.847 20.954 119.959 20.954C119.071 20.954 118.375 21.266 117.871 21.89C117.379 22.502 117.133 23.36 117.133 24.464C117.133 25.568 117.379 26.42 117.871 27.02C118.363 27.62 119.059 27.92 119.959 27.92ZM128.934 21.098V26.048C128.934 26.72 129.072 27.194 129.348 27.47C129.624 27.734 130.014 27.866 130.518 27.866C130.854 27.866 131.178 27.812 131.49 27.704V28.946C131.118 29.066 130.698 29.126 130.23 29.126C129.366 29.126 128.688 28.886 128.196 28.406C127.716 27.914 127.476 27.194 127.476 26.246V21.098H125.712V19.946H127.476V17.624L128.934 17.102V19.946H131.526V21.098H128.934ZM135.28 21.098V26.048C135.28 26.72 135.418 27.194 135.694 27.47C135.97 27.734 136.36 27.866 136.864 27.866C137.2 27.866 137.524 27.812 137.836 27.704V28.946C137.464 29.066 137.044 29.126 136.576 29.126C135.712 29.126 135.034 28.886 134.542 28.406C134.062 27.914 133.822 27.194 133.822 26.246V21.098H132.058V19.946H133.822V17.624L135.28 17.102V19.946H137.872V21.098H135.28ZM147.207 24.428H140.565C140.577 25.58 140.841 26.45 141.357 27.038C141.885 27.626 142.647 27.92 143.643 27.92C144.699 27.92 145.671 27.566 146.559 26.858L147.045 27.92C146.649 28.292 146.139 28.586 145.515 28.802C144.903 29.018 144.273 29.126 143.625 29.126C142.209 29.126 141.099 28.712 140.295 27.884C139.491 27.044 139.089 25.898 139.089 24.446C139.089 23.522 139.269 22.706 139.629 21.998C139.989 21.278 140.493 20.72 141.141 20.324C141.789 19.928 142.527 19.73 143.355 19.73C144.555 19.73 145.497 20.126 146.181 20.918C146.865 21.698 147.207 22.778 147.207 24.158V24.428ZM143.373 20.864C142.617 20.864 141.999 21.092 141.519 21.548C141.051 22.004 140.751 22.646 140.619 23.474H145.893C145.821 22.622 145.569 21.974 145.137 21.53C144.717 21.086 144.129 20.864 143.373 20.864ZM153.632 19.73C153.932 19.73 154.208 19.766 154.46 19.838L154.424 21.17C154.148 21.074 153.83 21.026 153.47 21.026C152.594 21.026 151.94 21.302 151.508 21.854C151.088 22.394 150.878 23.054 150.878 23.834V29H149.42V22.484C149.42 21.548 149.372 20.702 149.276 19.946H150.662L150.806 21.62C151.034 21.008 151.4 20.54 151.904 20.216C152.408 19.892 152.984 19.73 153.632 19.73ZM160.459 19.73C162.631 19.73 163.717 20.924 163.717 23.312V29H162.259V23.384C162.259 22.544 162.091 21.932 161.755 21.548C161.419 21.152 160.891 20.954 160.171 20.954C159.331 20.954 158.659 21.212 158.155 21.728C157.651 22.244 157.399 22.94 157.399 23.816V29H155.941V22.484C155.941 21.548 155.893 20.702 155.797 19.946H157.183L157.327 21.566C157.603 20.978 158.017 20.528 158.569 20.216C159.121 19.892 159.751 19.73 160.459 19.73ZM166.47 15.752H167.928V29H166.47V15.752ZM170.759 19.946H172.217V29H170.759V19.946ZM172.397 16.112V17.768H170.615V16.112H172.397ZM179.567 19.73C180.359 19.73 181.061 19.922 181.673 20.306C182.285 20.69 182.759 21.236 183.095 21.944C183.431 22.64 183.599 23.456 183.599 24.392C183.599 25.328 183.431 26.156 183.095 26.876C182.759 27.584 182.285 28.136 181.673 28.532C181.061 28.928 180.359 29.126 179.567 29.126C178.859 29.126 178.241 28.97 177.713 28.658C177.185 28.346 176.783 27.902 176.507 27.326V29H175.049V15.752H176.507V21.548C176.771 20.96 177.167 20.51 177.695 20.198C178.235 19.886 178.859 19.73 179.567 19.73ZM179.297 27.92C180.173 27.92 180.857 27.614 181.349 27.002C181.841 26.378 182.087 25.508 182.087 24.392C182.087 23.3 181.841 22.454 181.349 21.854C180.869 21.254 180.185 20.954 179.297 20.954C178.397 20.954 177.707 21.254 177.227 21.854C176.747 22.454 176.507 23.312 176.507 24.428C176.507 25.544 176.747 26.408 177.227 27.02C177.707 27.62 178.397 27.92 179.297 27.92ZM190.054 19.73C190.354 19.73 190.63 19.766 190.882 19.838L190.846 21.17C190.57 21.074 190.252 21.026 189.892 21.026C189.016 21.026 188.362 21.302 187.93 21.854C187.51 22.394 187.3 23.054 187.3 23.834V29H185.842V22.484C185.842 21.548 185.794 20.702 185.698 19.946H187.083L187.228 21.62C187.456 21.008 187.822 20.54 188.326 20.216C188.83 19.892 189.406 19.73 190.054 19.73ZM200.161 19.946V29H198.721V27.362C198.457 27.926 198.055 28.364 197.515 28.676C196.987 28.976 196.369 29.126 195.661 29.126C194.857 29.126 194.149 28.934 193.537 28.55C192.937 28.166 192.469 27.626 192.133 26.93C191.809 26.222 191.647 25.4 191.647 24.464C191.647 23.528 191.815 22.706 192.151 21.998C192.487 21.278 192.955 20.72 193.555 20.324C194.167 19.928 194.869 19.73 195.661 19.73C196.369 19.73 196.987 19.886 197.515 20.198C198.043 20.51 198.445 20.948 198.721 21.512V19.946H200.161ZM195.949 27.92C196.837 27.92 197.521 27.62 198.001 27.02C198.481 26.408 198.721 25.544 198.721 24.428C198.721 23.312 198.481 22.454 198.001 21.854C197.521 21.254 196.837 20.954 195.949 20.954C195.061 20.954 194.365 21.266 193.861 21.89C193.369 22.502 193.123 23.36 193.123 24.464C193.123 25.568 193.369 26.42 193.861 27.02C194.353 27.62 195.049 27.92 195.949 27.92ZM207.192 19.73C207.492 19.73 207.768 19.766 208.02 19.838L207.984 21.17C207.708 21.074 207.39 21.026 207.03 21.026C206.154 21.026 205.5 21.302 205.068 21.854C204.648 22.394 204.438 23.054 204.438 23.834V29H202.98V22.484C202.98 21.548 202.932 20.702 202.836 19.946H204.222L204.366 21.62C204.594 21.008 204.96 20.54 205.464 20.216C205.968 19.892 206.544 19.73 207.192 19.73ZM218.003 19.946L213.773 29.828C213.329 30.86 212.771 31.616 212.099 32.096C211.427 32.576 210.599 32.906 209.615 33.086L209.309 31.952C210.161 31.76 210.803 31.502 211.235 31.178C211.679 30.866 212.045 30.38 212.333 29.72L212.693 28.91L208.859 19.946H210.389L213.449 27.416L216.545 19.946H218.003Z" fill="#312E37"/>
<path d="M160.202 62.126C159.326 62.126 158.558 61.934 157.898 61.55C157.25 61.166 156.746 60.626 156.386 59.93C156.038 59.222 155.864 58.4 155.864 57.464C155.864 56.528 156.044 55.706 156.404 54.998C156.764 54.278 157.274 53.72 157.934 53.324C158.606 52.928 159.386 52.73 160.274 52.73C160.886 52.73 161.474 52.838 162.038 53.054C162.614 53.258 163.088 53.546 163.46 53.918L162.974 54.998C162.518 54.638 162.074 54.374 161.642 54.206C161.222 54.038 160.79 53.954 160.346 53.954C159.422 53.954 158.696 54.266 158.168 54.89C157.64 55.502 157.376 56.36 157.376 57.464C157.376 58.556 157.634 59.408 158.15 60.02C158.678 60.62 159.41 60.92 160.346 60.92C160.79 60.92 161.222 60.836 161.642 60.668C162.074 60.5 162.518 60.236 162.974 59.876L163.46 60.956C163.076 61.316 162.59 61.604 162.002 61.82C161.426 62.024 160.826 62.126 160.202 62.126ZM168.376 62.126C166.852 62.126 165.646 61.736 164.758 60.956L165.244 59.876C165.736 60.26 166.234 60.536 166.738 60.704C167.242 60.872 167.806 60.956 168.43 60.956C169.114 60.956 169.63 60.842 169.978 60.614C170.338 60.374 170.518 60.032 170.518 59.588C170.518 59.228 170.398 58.94 170.158 58.724C169.918 58.508 169.522 58.34 168.97 58.22L167.44 57.86C166.684 57.692 166.096 57.392 165.676 56.96C165.268 56.528 165.064 56.012 165.064 55.412C165.064 54.62 165.382 53.978 166.018 53.486C166.654 52.982 167.494 52.73 168.538 52.73C169.174 52.73 169.774 52.832 170.338 53.036C170.902 53.24 171.376 53.534 171.76 53.918L171.274 54.98C170.422 54.272 169.51 53.918 168.538 53.918C167.89 53.918 167.386 54.044 167.026 54.296C166.678 54.536 166.504 54.878 166.504 55.322C166.504 55.694 166.612 55.988 166.828 56.204C167.056 56.42 167.416 56.588 167.908 56.708L169.438 57.086C170.278 57.278 170.902 57.578 171.31 57.986C171.718 58.382 171.922 58.904 171.922 59.552C171.922 60.332 171.604 60.956 170.968 61.424C170.332 61.892 169.468 62.126 168.376 62.126ZM177.306 62.126C175.782 62.126 174.576 61.736 173.688 60.956L174.174 59.876C174.666 60.26 175.164 60.536 175.668 60.704C176.172 60.872 176.736 60.956 177.36 60.956C178.044 60.956 178.56 60.842 178.908 60.614C179.268 60.374 179.448 60.032 179.448 59.588C179.448 59.228 179.328 58.94 179.088 58.724C178.848 58.508 178.452 58.34 177.9 58.22L176.37 57.86C175.614 57.692 175.026 57.392 174.606 56.96C174.198 56.528 173.994 56.012 173.994 55.412C173.994 54.62 174.312 53.978 174.948 53.486C175.584 52.982 176.424 52.73 177.468 52.73C178.104 52.73 178.704 52.832 179.268 53.036C179.832 53.24 180.306 53.534 180.69 53.918L180.204 54.98C179.352 54.272 178.44 53.918 177.468 53.918C176.82 53.918 176.316 54.044 175.956 54.296C175.608 54.536 175.434 54.878 175.434 55.322C175.434 55.694 175.542 55.988 175.758 56.204C175.986 56.42 176.346 56.588 176.838 56.708L178.368 57.086C179.208 57.278 179.832 57.578 180.24 57.986C180.648 58.382 180.852 58.904 180.852 59.552C180.852 60.332 180.534 60.956 179.898 61.424C179.262 61.892 178.398 62.126 177.306 62.126Z" fill="#312E37"/>
<path d="M159.878 135.94C159.398 135.94 159.02 136.078 158.744 136.354C158.48 136.618 158.348 137.08 158.348 137.74V138.946H160.562V140.098H158.348V148H156.89V140.098H155.126V138.946H156.89V137.56C156.89 136.612 157.124 135.898 157.592 135.418C158.072 134.926 158.738 134.68 159.59 134.68C160.01 134.68 160.418 134.734 160.814 134.842V136.084C160.478 135.988 160.166 135.94 159.878 135.94ZM166.125 148.126C165.273 148.126 164.523 147.934 163.875 147.55C163.227 147.166 162.723 146.62 162.363 145.912C162.015 145.204 161.841 144.376 161.841 143.428C161.841 142.48 162.015 141.652 162.363 140.944C162.723 140.236 163.227 139.69 163.875 139.306C164.523 138.922 165.273 138.73 166.125 138.73C166.977 138.73 167.727 138.922 168.375 139.306C169.023 139.69 169.521 140.236 169.869 140.944C170.229 141.652 170.409 142.48 170.409 143.428C170.409 144.376 170.229 145.204 169.869 145.912C169.521 146.62 169.023 147.166 168.375 147.55C167.727 147.934 166.977 148.126 166.125 148.126ZM166.125 146.92C167.025 146.92 167.715 146.626 168.195 146.038C168.675 145.438 168.915 144.568 168.915 143.428C168.915 142.324 168.669 141.472 168.177 140.872C167.685 140.26 167.001 139.954 166.125 139.954C165.237 139.954 164.547 140.26 164.055 140.872C163.563 141.472 163.317 142.324 163.317 143.428C163.317 144.568 163.557 145.438 164.037 146.038C164.529 146.626 165.225 146.92 166.125 146.92ZM177.199 138.73C179.371 138.73 180.457 139.924 180.457 142.312V148H178.999V142.384C178.999 141.544 178.831 140.932 178.495 140.548C178.159 140.152 177.631 139.954 176.911 139.954C176.071 139.954 175.399 140.212 174.895 140.728C174.391 141.244 174.139 141.94 174.139 142.816V148H172.681V141.484C172.681 140.548 172.633 139.702 172.537 138.946H173.923L174.067 140.566C174.343 139.978 174.757 139.528 175.309 139.216C175.861 138.892 176.491 138.73 177.199 138.73ZM185.155 140.098V145.048C185.155 145.72 185.293 146.194 185.569 146.47C185.845 146.734 186.235 146.866 186.739 146.866C187.075 146.866 187.399 146.812 187.711 146.704V147.946C187.339 148.066 186.919 148.126 186.451 148.126C185.587 148.126 184.909 147.886 184.417 147.406C183.937 146.914 183.697 146.194 183.697 145.246V140.098H181.933V138.946H183.697V136.624L185.155 136.102V138.946H187.747V140.098H185.155ZM192.564 148.126C191.04 148.126 189.834 147.736 188.946 146.956L189.432 145.876C189.924 146.26 190.422 146.536 190.926 146.704C191.43 146.872 191.994 146.956 192.618 146.956C193.302 146.956 193.818 146.842 194.166 146.614C194.526 146.374 194.706 146.032 194.706 145.588C194.706 145.228 194.586 144.94 194.346 144.724C194.106 144.508 193.71 144.34 193.158 144.22L191.628 143.86C190.872 143.692 190.284 143.392 189.864 142.96C189.456 142.528 189.252 142.012 189.252 141.412C189.252 140.62 189.57 139.978 190.206 139.486C190.842 138.982 191.682 138.73 192.726 138.73C193.362 138.73 193.962 138.832 194.526 139.036C195.09 139.24 195.564 139.534 195.948 139.918L195.462 140.98C194.61 140.272 193.698 139.918 192.726 139.918C192.078 139.918 191.574 140.044 191.214 140.296C190.866 140.536 190.692 140.878 190.692 141.322C190.692 141.694 190.8 141.988 191.016 142.204C191.244 142.42 191.604 142.588 192.096 142.708L193.626 143.086C194.466 143.278 195.09 143.578 195.498 143.986C195.906 144.382 196.11 144.904 196.11 145.552C196.11 146.332 195.792 146.956 195.156 147.424C194.52 147.892 193.656 148.126 192.564 148.126Z" fill="#312E37"/>
<path d="M156.404 167.946H157.862V177H156.404V167.946ZM158.042 164.112V165.768H156.26V164.112H158.042ZM170.737 167.73C172.741 167.73 173.743 168.924 173.743 171.312V177H172.285V171.384C172.285 170.532 172.135 169.914 171.835 169.53C171.547 169.146 171.073 168.954 170.413 168.954C169.645 168.954 169.045 169.212 168.613 169.728C168.181 170.244 167.965 170.946 167.965 171.834V177H166.507V171.384C166.507 170.544 166.357 169.932 166.057 169.548C165.757 169.152 165.277 168.954 164.617 168.954C163.849 168.954 163.243 169.212 162.799 169.728C162.367 170.244 162.151 170.946 162.151 171.834V177H160.693V170.484C160.693 169.548 160.645 168.702 160.549 167.946H161.935L162.079 169.53C162.331 168.954 162.703 168.51 163.195 168.198C163.699 167.886 164.281 167.73 164.941 167.73C165.661 167.73 166.249 167.874 166.705 168.162C167.161 168.45 167.497 168.894 167.713 169.494C167.989 168.954 168.391 168.528 168.919 168.216C169.459 167.892 170.065 167.73 170.737 167.73ZM184.577 167.946V176.928C184.577 178.272 184.229 179.286 183.533 179.97C182.849 180.666 181.835 181.014 180.491 181.014C179.111 181.014 177.923 180.702 176.927 180.078L177.179 178.89C177.755 179.214 178.295 179.448 178.799 179.592C179.315 179.736 179.879 179.808 180.491 179.808C181.367 179.808 182.027 179.574 182.471 179.106C182.915 178.65 183.137 177.966 183.137 177.054V174.912C182.861 175.488 182.453 175.938 181.913 176.262C181.385 176.574 180.755 176.73 180.023 176.73C179.231 176.73 178.523 176.544 177.899 176.172C177.287 175.8 176.813 175.272 176.477 174.588C176.141 173.904 175.973 173.118 175.973 172.23C175.973 171.342 176.141 170.556 176.477 169.872C176.813 169.188 177.287 168.66 177.899 168.288C178.523 167.916 179.231 167.73 180.023 167.73C180.743 167.73 181.367 167.886 181.895 168.198C182.435 168.51 182.843 168.948 183.119 169.512V167.946H184.577ZM180.311 175.506C181.187 175.506 181.871 175.218 182.363 174.642C182.867 174.054 183.119 173.25 183.119 172.23C183.119 171.21 182.867 170.412 182.363 169.836C181.871 169.248 181.187 168.954 180.311 168.954C179.423 168.954 178.721 169.248 178.205 169.836C177.701 170.412 177.449 171.21 177.449 172.23C177.449 173.25 177.701 174.054 178.205 174.642C178.721 175.218 179.423 175.506 180.311 175.506Z" fill="#312E37"/>
<path d="M154.01 210.556C154.334 210.652 154.628 210.7 154.892 210.7C155.9 210.7 156.404 210.1 156.404 208.9V198.946H157.862V209.08C157.862 210.028 157.622 210.742 157.142 211.222C156.674 211.714 156.026 211.96 155.198 211.96C154.802 211.96 154.406 211.906 154.01 211.798V210.556ZM158.024 195.112V196.768H156.242V195.112H158.024ZM163.753 208.126C162.229 208.126 161.023 207.736 160.135 206.956L160.621 205.876C161.113 206.26 161.611 206.536 162.115 206.704C162.619 206.872 163.183 206.956 163.807 206.956C164.491 206.956 165.007 206.842 165.355 206.614C165.715 206.374 165.895 206.032 165.895 205.588C165.895 205.228 165.775 204.94 165.535 204.724C165.295 204.508 164.899 204.34 164.347 204.22L162.817 203.86C162.061 203.692 161.473 203.392 161.053 202.96C160.645 202.528 160.441 202.012 160.441 201.412C160.441 200.62 160.759 199.978 161.395 199.486C162.031 198.982 162.871 198.73 163.915 198.73C164.551 198.73 165.151 198.832 165.715 199.036C166.279 199.24 166.753 199.534 167.137 199.918L166.651 200.98C165.799 200.272 164.887 199.918 163.915 199.918C163.267 199.918 162.763 200.044 162.403 200.296C162.055 200.536 161.881 200.878 161.881 201.322C161.881 201.694 161.989 201.988 162.205 202.204C162.433 202.42 162.793 202.588 163.285 202.708L164.815 203.086C165.655 203.278 166.279 203.578 166.687 203.986C167.095 204.382 167.299 204.904 167.299 205.552C167.299 206.332 166.981 206.956 166.345 207.424C165.709 207.892 164.845 208.126 163.753 208.126Z" fill="#312E37"/>
<path d="M179.448 75.73C181.452 75.73 182.454 76.924 182.454 79.312V85H180.996V79.384C180.996 78.532 180.846 77.914 180.546 77.53C180.258 77.146 179.784 76.954 179.124 76.954C178.356 76.954 177.756 77.212 177.324 77.728C176.892 78.244 176.676 78.946 176.676 79.834V85H175.218V79.384C175.218 78.544 175.068 77.932 174.768 77.548C174.468 77.152 173.988 76.954 173.328 76.954C172.56 76.954 171.954 77.212 171.51 77.728C171.078 78.244 170.862 78.946 170.862 79.834V85H169.404V78.484C169.404 77.548 169.356 76.702 169.26 75.946H170.646L170.79 77.53C171.042 76.954 171.414 76.51 171.906 76.198C172.41 75.886 172.992 75.73 173.652 75.73C174.372 75.73 174.96 75.874 175.416 76.162C175.872 76.45 176.208 76.894 176.424 77.494C176.7 76.954 177.102 76.528 177.63 76.216C178.17 75.892 178.776 75.73 179.448 75.73ZM193.198 75.946V85H191.758V83.362C191.494 83.926 191.092 84.364 190.552 84.676C190.024 84.976 189.406 85.126 188.698 85.126C187.894 85.126 187.186 84.934 186.574 84.55C185.974 84.166 185.506 83.626 185.17 82.93C184.846 82.222 184.684 81.4 184.684 80.464C184.684 79.528 184.852 78.706 185.188 77.998C185.524 77.278 185.992 76.72 186.592 76.324C187.204 75.928 187.906 75.73 188.698 75.73C189.406 75.73 190.024 75.886 190.552 76.198C191.08 76.51 191.482 76.948 191.758 77.512V75.946H193.198ZM188.986 83.92C189.874 83.92 190.558 83.62 191.038 83.02C191.518 82.408 191.758 81.544 191.758 80.428C191.758 79.312 191.518 78.454 191.038 77.854C190.558 77.254 189.874 76.954 188.986 76.954C188.098 76.954 187.402 77.266 186.898 77.89C186.406 78.502 186.16 79.36 186.16 80.464C186.16 81.568 186.406 82.42 186.898 83.02C187.39 83.62 188.086 83.92 188.986 83.92ZM199.077 85.126C197.553 85.126 196.347 84.736 195.459 83.956L195.945 82.876C196.437 83.26 196.935 83.536 197.439 83.704C197.943 83.872 198.507 83.956 199.131 83.956C199.815 83.956 200.331 83.842 200.679 83.614C201.039 83.374 201.219 83.032 201.219 82.588C201.219 82.228 201.099 81.94 200.859 81.724C200.619 81.508 200.223 81.34 199.671 81.22L198.141 80.86C197.385 80.692 196.797 80.392 196.377 79.96C195.969 79.528 195.765 79.012 195.765 78.412C195.765 77.62 196.083 76.978 196.719 76.486C197.355 75.982 198.195 75.73 199.239 75.73C199.875 75.73 200.475 75.832 201.039 76.036C201.603 76.24 202.077 76.534 202.461 76.918L201.975 77.98C201.123 77.272 200.211 76.918 199.239 76.918C198.591 76.918 198.087 77.044 197.727 77.296C197.379 77.536 197.205 77.878 197.205 78.322C197.205 78.694 197.313 78.988 197.529 79.204C197.757 79.42 198.117 79.588 198.609 79.708L200.139 80.086C200.979 80.278 201.603 80.578 202.011 80.986C202.419 81.382 202.623 81.904 202.623 82.552C202.623 83.332 202.305 83.956 201.669 84.424C201.033 84.892 200.169 85.126 199.077 85.126ZM206.803 77.098V82.048C206.803 82.72 206.941 83.194 207.217 83.47C207.493 83.734 207.883 83.866 208.387 83.866C208.723 83.866 209.047 83.812 209.359 83.704V84.946C208.987 85.066 208.567 85.126 208.099 85.126C207.235 85.126 206.557 84.886 206.065 84.406C205.585 83.914 205.345 83.194 205.345 82.246V77.098H203.581V75.946H205.345V73.624L206.803 73.102V75.946H209.395V77.098H206.803ZM218.73 80.428H212.088C212.1 81.58 212.364 82.45 212.88 83.038C213.408 83.626 214.17 83.92 215.166 83.92C216.222 83.92 217.194 83.566 218.082 82.858L218.568 83.92C218.172 84.292 217.662 84.586 217.038 84.802C216.426 85.018 215.796 85.126 215.148 85.126C213.732 85.126 212.622 84.712 211.818 83.884C211.014 83.044 210.612 81.898 210.612 80.446C210.612 79.522 210.792 78.706 211.152 77.998C211.512 77.278 212.016 76.72 212.664 76.324C213.312 75.928 214.05 75.73 214.878 75.73C216.078 75.73 217.02 76.126 217.704 76.918C218.388 77.698 218.73 78.778 218.73 80.158V80.428ZM214.896 76.864C214.14 76.864 213.522 77.092 213.042 77.548C212.574 78.004 212.274 78.646 212.142 79.474H217.416C217.344 78.622 217.092 77.974 216.66 77.53C216.24 77.086 215.652 76.864 214.896 76.864ZM225.155 75.73C225.455 75.73 225.731 75.766 225.983 75.838L225.947 77.17C225.671 77.074 225.353 77.026 224.993 77.026C224.117 77.026 223.463 77.302 223.031 77.854C222.611 78.394 222.401 79.054 222.401 79.834V85H220.943V78.484C220.943 77.548 220.895 76.702 220.799 75.946H222.185L222.329 77.62C222.557 77.008 222.923 76.54 223.427 76.216C223.931 75.892 224.507 75.73 225.155 75.73ZM228.662 83.146V85H226.808V83.146H228.662ZM234.708 85.126C233.832 85.126 233.064 84.934 232.404 84.55C231.756 84.166 231.252 83.626 230.892 82.93C230.544 82.222 230.37 81.4 230.37 80.464C230.37 79.528 230.55 78.706 230.91 77.998C231.27 77.278 231.78 76.72 232.44 76.324C233.112 75.928 233.892 75.73 234.78 75.73C235.392 75.73 235.98 75.838 236.544 76.054C237.12 76.258 237.594 76.546 237.966 76.918L237.48 77.998C237.024 77.638 236.58 77.374 236.148 77.206C235.728 77.038 235.296 76.954 234.852 76.954C233.928 76.954 233.202 77.266 232.674 77.89C232.146 78.502 231.882 79.36 231.882 80.464C231.882 81.556 232.14 82.408 232.656 83.02C233.184 83.62 233.916 83.92 234.852 83.92C235.296 83.92 235.728 83.836 236.148 83.668C236.58 83.5 237.024 83.236 237.48 82.876L237.966 83.956C237.582 84.316 237.096 84.604 236.508 84.82C235.932 85.024 235.332 85.126 234.708 85.126ZM242.882 85.126C241.358 85.126 240.152 84.736 239.264 83.956L239.75 82.876C240.242 83.26 240.74 83.536 241.244 83.704C241.748 83.872 242.312 83.956 242.936 83.956C243.62 83.956 244.136 83.842 244.484 83.614C244.844 83.374 245.024 83.032 245.024 82.588C245.024 82.228 244.904 81.94 244.664 81.724C244.424 81.508 244.028 81.34 243.476 81.22L241.946 80.86C241.19 80.692 240.602 80.392 240.182 79.96C239.774 79.528 239.57 79.012 239.57 78.412C239.57 77.62 239.888 76.978 240.524 76.486C241.16 75.982 242 75.73 243.044 75.73C243.68 75.73 244.28 75.832 244.844 76.036C245.408 76.24 245.882 76.534 246.266 76.918L245.78 77.98C244.928 77.272 244.016 76.918 243.044 76.918C242.396 76.918 241.892 77.044 241.532 77.296C241.184 77.536 241.01 77.878 241.01 78.322C241.01 78.694 241.118 78.988 241.334 79.204C241.562 79.42 241.922 79.588 242.414 79.708L243.944 80.086C244.784 80.278 245.408 80.578 245.816 80.986C246.224 81.382 246.428 81.904 246.428 82.552C246.428 83.332 246.11 83.956 245.474 84.424C244.838 84.892 243.974 85.126 242.882 85.126ZM251.812 85.126C250.288 85.126 249.082 84.736 248.194 83.956L248.68 82.876C249.172 83.26 249.67 83.536 250.174 83.704C250.678 83.872 251.242 83.956 251.866 83.956C252.55 83.956 253.066 83.842 253.414 83.614C253.774 83.374 253.954 83.032 253.954 82.588C253.954 82.228 253.834 81.94 253.594 81.724C253.354 81.508 252.958 81.34 252.406 81.22L250.876 80.86C250.12 80.692 249.532 80.392 249.112 79.96C248.704 79.528 248.5 79.012 248.5 78.412C248.5 77.62 248.818 76.978 249.454 76.486C250.09 75.982 250.93 75.73 251.974 75.73C252.61 75.73 253.21 75.832 253.774 76.036C254.338 76.24 254.812 76.534 255.196 76.918L254.71 77.98C253.858 77.272 252.946 76.918 251.974 76.918C251.326 76.918 250.822 77.044 250.462 77.296C250.114 77.536 249.94 77.878 249.94 78.322C249.94 78.694 250.048 78.988 250.264 79.204C250.492 79.42 250.852 79.588 251.344 79.708L252.874 80.086C253.714 80.278 254.338 80.578 254.746 80.986C255.154 81.382 255.358 81.904 255.358 82.552C255.358 83.332 255.04 83.956 254.404 84.424C253.768 84.892 252.904 85.126 251.812 85.126Z" fill="#312E37"/>
<path d="M128.404 231.946H129.862V241H128.404V231.946ZM130.042 228.112V229.768H128.26V228.112H130.042ZM137.211 231.73C139.383 231.73 140.469 232.924 140.469 235.312V241H139.011V235.384C139.011 234.544 138.843 233.932 138.507 233.548C138.171 233.152 137.643 232.954 136.923 232.954C136.083 232.954 135.411 233.212 134.907 233.728C134.403 234.244 134.151 234.94 134.151 235.816V241H132.693V234.484C132.693 233.548 132.645 232.702 132.549 231.946H133.935L134.079 233.566C134.355 232.978 134.769 232.528 135.321 232.216C135.873 231.892 136.503 231.73 137.211 231.73ZM151.196 227.752V241H149.756V239.362C149.492 239.926 149.09 240.364 148.55 240.676C148.022 240.976 147.404 241.126 146.696 241.126C145.904 241.126 145.202 240.928 144.59 240.532C143.99 240.136 143.522 239.584 143.186 238.876C142.85 238.156 142.682 237.328 142.682 236.392C142.682 235.456 142.844 234.64 143.168 233.944C143.504 233.236 143.978 232.69 144.59 232.306C145.202 231.922 145.904 231.73 146.696 231.73C147.404 231.73 148.022 231.886 148.55 232.198C149.078 232.498 149.474 232.924 149.738 233.476V227.752H151.196ZM146.984 239.92C147.872 239.92 148.556 239.62 149.036 239.02C149.516 238.408 149.756 237.544 149.756 236.428C149.756 235.324 149.516 234.472 149.036 233.872C148.556 233.26 147.872 232.954 146.984 232.954C146.096 232.954 145.4 233.254 144.896 233.854C144.404 234.454 144.158 235.3 144.158 236.392C144.158 237.508 144.404 238.378 144.896 239.002C145.4 239.614 146.096 239.92 146.984 239.92ZM161.593 236.428H154.951C154.963 237.58 155.227 238.45 155.743 239.038C156.271 239.626 157.033 239.92 158.029 239.92C159.085 239.92 160.057 239.566 160.945 238.858L161.431 239.92C161.035 240.292 160.525 240.586 159.901 240.802C159.289 241.018 158.659 241.126 158.011 241.126C156.595 241.126 155.485 240.712 154.681 239.884C153.877 239.044 153.475 237.898 153.475 236.446C153.475 235.522 153.655 234.706 154.015 233.998C154.375 233.278 154.879 232.72 155.527 232.324C156.175 231.928 156.913 231.73 157.741 231.73C158.941 231.73 159.883 232.126 160.567 232.918C161.251 233.698 161.593 234.778 161.593 236.158V236.428ZM157.759 232.864C157.003 232.864 156.385 233.092 155.905 233.548C155.437 234.004 155.137 234.646 155.005 235.474H160.279C160.207 234.622 159.955 233.974 159.523 233.53C159.103 233.086 158.515 232.864 157.759 232.864ZM171.693 241H169.947L167.085 237.436L164.259 241H162.477L166.239 236.338L162.693 231.946H164.457L167.085 235.276L169.713 231.946H171.495L167.967 236.338L171.693 241ZM175.147 239.146V241H173.293V239.146H175.147ZM182.229 231.73C184.401 231.73 185.487 232.924 185.487 235.312V241H184.029V235.384C184.029 234.544 183.861 233.932 183.525 233.548C183.189 233.152 182.661 232.954 181.941 232.954C181.101 232.954 180.429 233.212 179.925 233.728C179.421 234.244 179.169 234.94 179.169 235.816V241H177.711V227.752H179.169V233.422C179.457 232.87 179.865 232.45 180.393 232.162C180.933 231.874 181.545 231.73 182.229 231.73ZM190.184 233.098V238.048C190.184 238.72 190.322 239.194 190.598 239.47C190.874 239.734 191.264 239.866 191.768 239.866C192.104 239.866 192.428 239.812 192.74 239.704V240.946C192.368 241.066 191.948 241.126 191.48 241.126C190.616 241.126 189.938 240.886 189.446 240.406C188.966 239.914 188.726 239.194 188.726 238.246V233.098H186.962V231.946H188.726V229.624L190.184 229.102V231.946H192.776V233.098H190.184ZM204.577 231.73C206.581 231.73 207.583 232.924 207.583 235.312V241H206.125V235.384C206.125 234.532 205.975 233.914 205.675 233.53C205.387 233.146 204.913 232.954 204.253 232.954C203.485 232.954 202.885 233.212 202.453 233.728C202.021 234.244 201.805 234.946 201.805 235.834V241H200.347V235.384C200.347 234.544 200.197 233.932 199.897 233.548C199.597 233.152 199.117 232.954 198.457 232.954C197.689 232.954 197.083 233.212 196.639 233.728C196.207 234.244 195.991 234.946 195.991 235.834V241H194.533V234.484C194.533 233.548 194.485 232.702 194.389 231.946H195.775L195.919 233.53C196.171 232.954 196.543 232.51 197.035 232.198C197.539 231.886 198.121 231.73 198.781 231.73C199.501 231.73 200.089 231.874 200.545 232.162C201.001 232.45 201.337 232.894 201.553 233.494C201.829 232.954 202.231 232.528 202.759 232.216C203.299 231.892 203.905 231.73 204.577 231.73ZM210.353 227.752H211.811V241H210.353V227.752Z" fill="#312E37"/>
<path d="M132.202 270.126C131.326 270.126 130.558 269.934 129.898 269.55C129.25 269.166 128.746 268.626 128.386 267.93C128.038 267.222 127.864 266.4 127.864 265.464C127.864 264.528 128.044 263.706 128.404 262.998C128.764 262.278 129.274 261.72 129.934 261.324C130.606 260.928 131.386 260.73 132.274 260.73C132.886 260.73 133.474 260.838 134.038 261.054C134.614 261.258 135.088 261.546 135.46 261.918L134.974 262.998C134.518 262.638 134.074 262.374 133.642 262.206C133.222 262.038 132.79 261.954 132.346 261.954C131.422 261.954 130.696 262.266 130.168 262.89C129.64 263.502 129.376 264.36 129.376 265.464C129.376 266.556 129.634 267.408 130.15 268.02C130.678 268.62 131.41 268.92 132.346 268.92C132.79 268.92 133.222 268.836 133.642 268.668C134.074 268.5 134.518 268.236 134.974 267.876L135.46 268.956C135.076 269.316 134.59 269.604 134.002 269.82C133.426 270.024 132.826 270.126 132.202 270.126ZM137.316 260.946H138.774V270H137.316V260.946ZM138.954 257.112V258.768H137.172V257.112H138.954ZM143.549 262.098V267.048C143.549 267.72 143.687 268.194 143.963 268.47C144.239 268.734 144.629 268.866 145.133 268.866C145.469 268.866 145.793 268.812 146.105 268.704V269.946C145.733 270.066 145.313 270.126 144.845 270.126C143.981 270.126 143.303 269.886 142.811 269.406C142.331 268.914 142.091 268.194 142.091 267.246V262.098H140.327V260.946H142.091V258.624L143.549 258.102V260.946H146.141V262.098H143.549ZM155.872 260.946V270H154.432V268.362C154.168 268.926 153.766 269.364 153.226 269.676C152.698 269.976 152.08 270.126 151.372 270.126C150.568 270.126 149.86 269.934 149.248 269.55C148.648 269.166 148.18 268.626 147.844 267.93C147.52 267.222 147.358 266.4 147.358 265.464C147.358 264.528 147.526 263.706 147.862 262.998C148.198 262.278 148.666 261.72 149.266 261.324C149.878 260.928 150.58 260.73 151.372 260.73C152.08 260.73 152.698 260.886 153.226 261.198C153.754 261.51 154.156 261.948 154.432 262.512V260.946H155.872ZM151.66 268.92C152.548 268.92 153.232 268.62 153.712 268.02C154.192 267.408 154.432 266.544 154.432 265.428C154.432 264.312 154.192 263.454 153.712 262.854C153.232 262.254 152.548 261.954 151.66 261.954C150.772 261.954 150.076 262.266 149.572 262.89C149.08 263.502 148.834 264.36 148.834 265.464C148.834 266.568 149.08 267.42 149.572 268.02C150.064 268.62 150.76 268.92 151.66 268.92ZM160.635 262.098V267.048C160.635 267.72 160.773 268.194 161.049 268.47C161.325 268.734 161.715 268.866 162.219 268.866C162.555 268.866 162.879 268.812 163.191 268.704V269.946C162.819 270.066 162.399 270.126 161.931 270.126C161.067 270.126 160.389 269.886 159.897 269.406C159.417 268.914 159.177 268.194 159.177 267.246V262.098H157.413V260.946H159.177V258.624L160.635 258.102V260.946H163.227V262.098H160.635ZM164.984 260.946H166.442V270H164.984V260.946ZM166.622 257.112V258.768H164.84V257.112H166.622ZM173.017 270.126C172.165 270.126 171.415 269.934 170.767 269.55C170.119 269.166 169.615 268.62 169.255 267.912C168.907 267.204 168.733 266.376 168.733 265.428C168.733 264.48 168.907 263.652 169.255 262.944C169.615 262.236 170.119 261.69 170.767 261.306C171.415 260.922 172.165 260.73 173.017 260.73C173.869 260.73 174.619 260.922 175.267 261.306C175.915 261.69 176.413 262.236 176.761 262.944C177.121 263.652 177.301 264.48 177.301 265.428C177.301 266.376 177.121 267.204 176.761 267.912C176.413 268.62 175.915 269.166 175.267 269.55C174.619 269.934 173.869 270.126 173.017 270.126ZM173.017 268.92C173.917 268.92 174.607 268.626 175.087 268.038C175.567 267.438 175.807 266.568 175.807 265.428C175.807 264.324 175.561 263.472 175.069 262.872C174.577 262.26 173.893 261.954 173.017 261.954C172.129 261.954 171.439 262.26 170.947 262.872C170.455 263.472 170.209 264.324 170.209 265.428C170.209 266.568 170.449 267.438 170.929 268.038C171.421 268.626 172.117 268.92 173.017 268.92ZM184.092 260.73C186.264 260.73 187.35 261.924 187.35 264.312V270H185.892V264.384C185.892 263.544 185.724 262.932 185.388 262.548C185.052 262.152 184.524 261.954 183.804 261.954C182.964 261.954 182.292 262.212 181.788 262.728C181.284 263.244 181.032 263.94 181.032 264.816V270H179.574V263.484C179.574 262.548 179.526 261.702 179.43 260.946H180.816L180.96 262.566C181.236 261.978 181.65 261.528 182.202 261.216C182.754 260.892 183.384 260.73 184.092 260.73ZM193.163 270.126C191.639 270.126 190.433 269.736 189.545 268.956L190.031 267.876C190.523 268.26 191.021 268.536 191.525 268.704C192.029 268.872 192.593 268.956 193.217 268.956C193.901 268.956 194.417 268.842 194.765 268.614C195.125 268.374 195.305 268.032 195.305 267.588C195.305 267.228 195.185 266.94 194.945 266.724C194.705 266.508 194.309 266.34 193.757 266.22L192.227 265.86C191.471 265.692 190.883 265.392 190.463 264.96C190.055 264.528 189.851 264.012 189.851 263.412C189.851 262.62 190.169 261.978 190.805 261.486C191.441 260.982 192.281 260.73 193.325 260.73C193.961 260.73 194.561 260.832 195.125 261.036C195.689 261.24 196.163 261.534 196.547 261.918L196.061 262.98C195.209 262.272 194.297 261.918 193.325 261.918C192.677 261.918 192.173 262.044 191.813 262.296C191.465 262.536 191.291 262.878 191.291 263.322C191.291 263.694 191.399 263.988 191.615 264.204C191.843 264.42 192.203 264.588 192.695 264.708L194.225 265.086C195.065 265.278 195.689 265.578 196.097 265.986C196.505 266.382 196.709 266.904 196.709 267.552C196.709 268.332 196.391 268.956 195.755 269.424C195.119 269.892 194.255 270.126 193.163 270.126ZM200.547 268.146V270H198.693V268.146H200.547ZM207.629 260.73C209.801 260.73 210.887 261.924 210.887 264.312V270H209.429V264.384C209.429 263.544 209.261 262.932 208.925 262.548C208.589 262.152 208.061 261.954 207.341 261.954C206.501 261.954 205.829 262.212 205.325 262.728C204.821 263.244 204.569 263.94 204.569 264.816V270H203.111V256.752H204.569V262.422C204.857 261.87 205.265 261.45 205.793 261.162C206.333 260.874 206.945 260.73 207.629 260.73ZM215.584 262.098V267.048C215.584 267.72 215.722 268.194 215.998 268.47C216.274 268.734 216.664 268.866 217.168 268.866C217.504 268.866 217.828 268.812 218.14 268.704V269.946C217.768 270.066 217.348 270.126 216.88 270.126C216.016 270.126 215.338 269.886 214.846 269.406C214.366 268.914 214.126 268.194 214.126 267.246V262.098H212.362V260.946H214.126V258.624L215.584 258.102V260.946H218.176V262.098H215.584ZM229.977 260.73C231.981 260.73 232.983 261.924 232.983 264.312V270H231.525V264.384C231.525 263.532 231.375 262.914 231.075 262.53C230.787 262.146 230.313 261.954 229.653 261.954C228.885 261.954 228.285 262.212 227.853 262.728C227.421 263.244 227.205 263.946 227.205 264.834V270H225.747V264.384C225.747 263.544 225.597 262.932 225.297 262.548C224.997 262.152 224.517 261.954 223.857 261.954C223.089 261.954 222.483 262.212 222.039 262.728C221.607 263.244 221.391 263.946 221.391 264.834V270H219.933V263.484C219.933 262.548 219.885 261.702 219.789 260.946H221.175L221.319 262.53C221.571 261.954 221.943 261.51 222.435 261.198C222.939 260.886 223.521 260.73 224.181 260.73C224.901 260.73 225.489 260.874 225.945 261.162C226.401 261.45 226.737 261.894 226.953 262.494C227.229 261.954 227.631 261.528 228.159 261.216C228.699 260.892 229.305 260.73 229.977 260.73ZM235.754 256.752H237.212V270H235.754V256.752Z" fill="#312E37"/>
<path d="M142.156 289.946L138.808 299H137.404L134.812 291.926L132.238 299H130.834L127.486 289.946H129.016L131.572 297.254L134.218 289.946H135.496L138.106 297.272L140.716 289.946H142.156ZM144.049 289.946H145.507V299H144.049V289.946ZM145.687 286.112V287.768H143.905V286.112H145.687ZM152.55 289.73C152.85 289.73 153.126 289.766 153.378 289.838L153.342 291.17C153.066 291.074 152.748 291.026 152.388 291.026C151.512 291.026 150.858 291.302 150.426 291.854C150.006 292.394 149.796 293.054 149.796 293.834V299H148.338V292.484C148.338 291.548 148.29 290.702 148.194 289.946H149.58L149.724 291.62C149.952 291.008 150.318 290.54 150.822 290.216C151.326 289.892 151.902 289.73 152.55 289.73ZM162.261 294.428H155.619C155.631 295.58 155.895 296.45 156.411 297.038C156.939 297.626 157.701 297.92 158.697 297.92C159.753 297.92 160.725 297.566 161.613 296.858L162.099 297.92C161.703 298.292 161.193 298.586 160.569 298.802C159.957 299.018 159.327 299.126 158.679 299.126C157.263 299.126 156.153 298.712 155.349 297.884C154.545 297.044 154.143 295.898 154.143 294.446C154.143 293.522 154.323 292.706 154.683 291.998C155.043 291.278 155.547 290.72 156.195 290.324C156.843 289.928 157.581 289.73 158.409 289.73C159.609 289.73 160.551 290.126 161.235 290.918C161.919 291.698 162.261 292.778 162.261 294.158V294.428ZM158.427 290.864C157.671 290.864 157.053 291.092 156.573 291.548C156.105 292.004 155.805 292.646 155.673 293.474H160.947C160.875 292.622 160.623 291.974 160.191 291.53C159.771 291.086 159.183 290.864 158.427 290.864ZM167.931 286.94C167.451 286.94 167.073 287.078 166.797 287.354C166.533 287.618 166.401 288.08 166.401 288.74V289.946H168.615V291.098H166.401V299H164.943V291.098H163.179V289.946H164.943V288.56C164.943 287.612 165.177 286.898 165.645 286.418C166.125 285.926 166.791 285.68 167.643 285.68C168.063 285.68 168.471 285.734 168.867 285.842V287.084C168.531 286.988 168.219 286.94 167.931 286.94ZM174.733 289.73C175.033 289.73 175.309 289.766 175.561 289.838L175.525 291.17C175.249 291.074 174.931 291.026 174.571 291.026C173.695 291.026 173.041 291.302 172.609 291.854C172.189 292.394 171.979 293.054 171.979 293.834V299H170.521V292.484C170.521 291.548 170.473 290.702 170.377 289.946H171.763L171.907 291.62C172.135 291.008 172.501 290.54 173.005 290.216C173.509 289.892 174.085 289.73 174.733 289.73ZM184.841 289.946V299H183.401V297.362C183.137 297.926 182.735 298.364 182.195 298.676C181.667 298.976 181.049 299.126 180.341 299.126C179.537 299.126 178.829 298.934 178.217 298.55C177.617 298.166 177.149 297.626 176.813 296.93C176.489 296.222 176.327 295.4 176.327 294.464C176.327 293.528 176.495 292.706 176.831 291.998C177.167 291.278 177.635 290.72 178.235 290.324C178.847 289.928 179.549 289.73 180.341 289.73C181.049 289.73 181.667 289.886 182.195 290.198C182.723 290.51 183.125 290.948 183.401 291.512V289.946H184.841ZM180.629 297.92C181.517 297.92 182.201 297.62 182.681 297.02C183.161 296.408 183.401 295.544 183.401 294.428C183.401 293.312 183.161 292.454 182.681 291.854C182.201 291.254 181.517 290.954 180.629 290.954C179.741 290.954 179.045 291.266 178.541 291.89C178.049 292.502 177.803 293.36 177.803 294.464C177.803 295.568 178.049 296.42 178.541 297.02C179.033 297.62 179.729 297.92 180.629 297.92ZM197.704 289.73C199.708 289.73 200.71 290.924 200.71 293.312V299H199.252V293.384C199.252 292.532 199.102 291.914 198.802 291.53C198.514 291.146 198.04 290.954 197.38 290.954C196.612 290.954 196.012 291.212 195.58 291.728C195.148 292.244 194.932 292.946 194.932 293.834V299H193.474V293.384C193.474 292.544 193.324 291.932 193.024 291.548C192.724 291.152 192.244 290.954 191.584 290.954C190.816 290.954 190.21 291.212 189.766 291.728C189.334 292.244 189.118 292.946 189.118 293.834V299H187.66V292.484C187.66 291.548 187.612 290.702 187.516 289.946H188.902L189.046 291.53C189.298 290.954 189.67 290.51 190.162 290.198C190.666 289.886 191.248 289.73 191.908 289.73C192.628 289.73 193.216 289.874 193.672 290.162C194.128 290.45 194.464 290.894 194.68 291.494C194.956 290.954 195.358 290.528 195.886 290.216C196.426 289.892 197.032 289.73 197.704 289.73ZM211.058 294.428H204.416C204.428 295.58 204.692 296.45 205.208 297.038C205.736 297.626 206.498 297.92 207.494 297.92C208.55 297.92 209.522 297.566 210.41 296.858L210.896 297.92C210.5 298.292 209.99 298.586 209.366 298.802C208.754 299.018 208.124 299.126 207.476 299.126C206.06 299.126 204.95 298.712 204.146 297.884C203.342 297.044 202.94 295.898 202.94 294.446C202.94 293.522 203.12 292.706 203.48 291.998C203.84 291.278 204.344 290.72 204.992 290.324C205.64 289.928 206.378 289.73 207.206 289.73C208.406 289.73 209.348 290.126 210.032 290.918C210.716 291.698 211.058 292.778 211.058 294.158V294.428ZM207.224 290.864C206.468 290.864 205.85 291.092 205.37 291.548C204.902 292.004 204.602 292.646 204.47 293.474H209.744C209.672 292.622 209.42 291.974 208.988 291.53C208.568 291.086 207.98 290.864 207.224 290.864ZM216.331 299.126C214.807 299.126 213.601 298.736 212.713 297.956L213.199 296.876C213.691 297.26 214.189 297.536 214.693 297.704C215.197 297.872 215.761 297.956 216.385 297.956C217.069 297.956 217.585 297.842 217.933 297.614C218.293 297.374 218.473 297.032 218.473 296.588C218.473 296.228 218.353 295.94 218.113 295.724C217.873 295.508 217.477 295.34 216.925 295.22L215.395 294.86C214.639 294.692 214.051 294.392 213.631 293.96C213.223 293.528 213.019 293.012 213.019 292.412C213.019 291.62 213.337 290.978 213.973 290.486C214.609 289.982 215.449 289.73 216.493 289.73C217.129 289.73 217.729 289.832 218.293 290.036C218.857 290.24 219.331 290.534 219.715 290.918L219.229 291.98C218.377 291.272 217.465 290.918 216.493 290.918C215.845 290.918 215.341 291.044 214.981 291.296C214.633 291.536 214.459 291.878 214.459 292.322C214.459 292.694 214.567 292.988 214.783 293.204C215.011 293.42 215.371 293.588 215.863 293.708L217.393 294.086C218.233 294.278 218.857 294.578 219.265 294.986C219.673 295.382 219.877 295.904 219.877 296.552C219.877 297.332 219.559 297.956 218.923 298.424C218.287 298.892 217.423 299.126 216.331 299.126ZM223.715 297.146V299H221.861V297.146H223.715ZM230.797 289.73C232.969 289.73 234.055 290.924 234.055 293.312V299H232.597V293.384C232.597 292.544 232.429 291.932 232.093 291.548C231.757 291.152 231.229 290.954 230.509 290.954C229.669 290.954 228.997 291.212 228.493 291.728C227.989 292.244 227.737 292.94 227.737 293.816V299H226.279V285.752H227.737V291.422C228.025 290.87 228.433 290.45 228.961 290.162C229.501 289.874 230.113 289.73 230.797 289.73ZM238.752 291.098V296.048C238.752 296.72 238.89 297.194 239.166 297.47C239.442 297.734 239.832 297.866 240.336 297.866C240.672 297.866 240.996 297.812 241.308 297.704V298.946C240.936 299.066 240.516 299.126 240.048 299.126C239.184 299.126 238.506 298.886 238.014 298.406C237.534 297.914 237.294 297.194 237.294 296.246V291.098H235.53V289.946H237.294V287.624L238.752 287.102V289.946H241.344V291.098H238.752ZM253.145 289.73C255.149 289.73 256.151 290.924 256.151 293.312V299H254.693V293.384C254.693 292.532 254.543 291.914 254.243 291.53C253.955 291.146 253.481 290.954 252.821 290.954C252.053 290.954 251.453 291.212 251.021 291.728C250.589 292.244 250.373 292.946 250.373 293.834V299H248.915V293.384C248.915 292.544 248.765 291.932 248.465 291.548C248.165 291.152 247.685 290.954 247.025 290.954C246.257 290.954 245.651 291.212 245.207 291.728C244.775 292.244 244.559 292.946 244.559 293.834V299H243.101V292.484C243.101 291.548 243.053 290.702 242.957 289.946H244.343L244.487 291.53C244.739 290.954 245.111 290.51 245.603 290.198C246.107 289.886 246.689 289.73 247.349 289.73C248.069 289.73 248.657 289.874 249.113 290.162C249.569 290.45 249.905 290.894 250.121 291.494C250.397 290.954 250.799 290.528 251.327 290.216C251.867 289.892 252.473 289.73 253.145 289.73ZM258.922 285.752H260.38V299H258.922V285.752Z" fill="#312E37"/>
<path d="M177.468 102.946V111.928C177.468 113.272 177.12 114.286 176.424 114.97C175.74 115.666 174.726 116.014 173.382 116.014C172.002 116.014 170.814 115.702 169.818 115.078L170.07 113.89C170.646 114.214 171.186 114.448 171.69 114.592C172.206 114.736 172.77 114.808 173.382 114.808C174.258 114.808 174.918 114.574 175.362 114.106C175.806 113.65 176.028 112.966 176.028 112.054V109.912C175.752 110.488 175.344 110.938 174.804 111.262C174.276 111.574 173.646 111.73 172.914 111.73C172.122 111.73 171.414 111.544 170.79 111.172C170.178 110.8 169.704 110.272 169.368 109.588C169.032 108.904 168.864 108.118 168.864 107.23C168.864 106.342 169.032 105.556 169.368 104.872C169.704 104.188 170.178 103.66 170.79 103.288C171.414 102.916 172.122 102.73 172.914 102.73C173.634 102.73 174.258 102.886 174.786 103.198C175.326 103.51 175.734 103.948 176.01 104.512V102.946H177.468ZM173.202 110.506C174.078 110.506 174.762 110.218 175.254 109.642C175.758 109.054 176.01 108.25 176.01 107.23C176.01 106.21 175.758 105.412 175.254 104.836C174.762 104.248 174.078 103.954 173.202 103.954C172.314 103.954 171.612 104.248 171.096 104.836C170.592 105.412 170.34 106.21 170.34 107.23C170.34 108.25 170.592 109.054 171.096 109.642C171.612 110.218 172.314 110.506 173.202 110.506ZM184.479 102.73C184.779 102.73 185.055 102.766 185.307 102.838L185.271 104.17C184.995 104.074 184.677 104.026 184.317 104.026C183.441 104.026 182.787 104.302 182.355 104.854C181.935 105.394 181.725 106.054 181.725 106.834V112H180.267V105.484C180.267 104.548 180.219 103.702 180.123 102.946H181.509L181.653 104.62C181.881 104.008 182.247 103.54 182.751 103.216C183.255 102.892 183.831 102.73 184.479 102.73ZM186.789 102.946H188.247V112H186.789V102.946ZM188.427 99.112V100.768H186.645V99.112H188.427ZM199.052 98.752V112H197.612V110.362C197.348 110.926 196.946 111.364 196.406 111.676C195.878 111.976 195.26 112.126 194.552 112.126C193.76 112.126 193.058 111.928 192.446 111.532C191.846 111.136 191.378 110.584 191.042 109.876C190.706 109.156 190.538 108.328 190.538 107.392C190.538 106.456 190.7 105.64 191.024 104.944C191.36 104.236 191.834 103.69 192.446 103.306C193.058 102.922 193.76 102.73 194.552 102.73C195.26 102.73 195.878 102.886 196.406 103.198C196.934 103.498 197.33 103.924 197.594 104.476V98.752H199.052ZM194.84 110.92C195.728 110.92 196.412 110.62 196.892 110.02C197.372 109.408 197.612 108.544 197.612 107.428C197.612 106.324 197.372 105.472 196.892 104.872C196.412 104.26 195.728 103.954 194.84 103.954C193.952 103.954 193.256 104.254 192.752 104.854C192.26 105.454 192.014 106.3 192.014 107.392C192.014 108.508 192.26 109.378 192.752 110.002C193.256 110.614 193.952 110.92 194.84 110.92ZM204.931 112.126C203.407 112.126 202.201 111.736 201.313 110.956L201.799 109.876C202.291 110.26 202.789 110.536 203.293 110.704C203.797 110.872 204.361 110.956 204.985 110.956C205.669 110.956 206.185 110.842 206.533 110.614C206.893 110.374 207.073 110.032 207.073 109.588C207.073 109.228 206.953 108.94 206.713 108.724C206.473 108.508 206.077 108.34 205.525 108.22L203.995 107.86C203.239 107.692 202.651 107.392 202.231 106.96C201.823 106.528 201.619 106.012 201.619 105.412C201.619 104.62 201.937 103.978 202.573 103.486C203.209 102.982 204.049 102.73 205.093 102.73C205.729 102.73 206.329 102.832 206.893 103.036C207.457 103.24 207.931 103.534 208.315 103.918L207.829 104.98C206.977 104.272 206.065 103.918 205.093 103.918C204.445 103.918 203.941 104.044 203.581 104.296C203.233 104.536 203.059 104.878 203.059 105.322C203.059 105.694 203.167 105.988 203.383 106.204C203.611 106.42 203.971 106.588 204.463 106.708L205.993 107.086C206.833 107.278 207.457 107.578 207.865 107.986C208.273 108.382 208.477 108.904 208.477 109.552C208.477 110.332 208.159 110.956 207.523 111.424C206.887 111.892 206.023 112.126 204.931 112.126ZM212.315 110.146V112H210.461V110.146H212.315ZM218.36 112.126C217.484 112.126 216.716 111.934 216.056 111.55C215.408 111.166 214.904 110.626 214.544 109.93C214.196 109.222 214.022 108.4 214.022 107.464C214.022 106.528 214.202 105.706 214.562 104.998C214.922 104.278 215.432 103.72 216.092 103.324C216.764 102.928 217.544 102.73 218.432 102.73C219.044 102.73 219.632 102.838 220.196 103.054C220.772 103.258 221.246 103.546 221.618 103.918L221.132 104.998C220.676 104.638 220.232 104.374 219.8 104.206C219.38 104.038 218.948 103.954 218.504 103.954C217.58 103.954 216.854 104.266 216.326 104.89C215.798 105.502 215.534 106.36 215.534 107.464C215.534 108.556 215.792 109.408 216.308 110.02C216.836 110.62 217.568 110.92 218.504 110.92C218.948 110.92 219.38 110.836 219.8 110.668C220.232 110.5 220.676 110.236 221.132 109.876L221.618 110.956C221.234 111.316 220.748 111.604 220.16 111.82C219.584 112.024 218.984 112.126 218.36 112.126ZM226.534 112.126C225.01 112.126 223.804 111.736 222.916 110.956L223.402 109.876C223.894 110.26 224.392 110.536 224.896 110.704C225.4 110.872 225.964 110.956 226.588 110.956C227.272 110.956 227.788 110.842 228.136 110.614C228.496 110.374 228.676 110.032 228.676 109.588C228.676 109.228 228.556 108.94 228.316 108.724C228.076 108.508 227.68 108.34 227.128 108.22L225.598 107.86C224.842 107.692 224.254 107.392 223.834 106.96C223.426 106.528 223.222 106.012 223.222 105.412C223.222 104.62 223.54 103.978 224.176 103.486C224.812 102.982 225.652 102.73 226.696 102.73C227.332 102.73 227.932 102.832 228.496 103.036C229.06 103.24 229.534 103.534 229.918 103.918L229.432 104.98C228.58 104.272 227.668 103.918 226.696 103.918C226.048 103.918 225.544 104.044 225.184 104.296C224.836 104.536 224.662 104.878 224.662 105.322C224.662 105.694 224.77 105.988 224.986 106.204C225.214 106.42 225.574 106.588 226.066 106.708L227.596 107.086C228.436 107.278 229.06 107.578 229.468 107.986C229.876 108.382 230.08 108.904 230.08 109.552C230.08 110.332 229.762 110.956 229.126 111.424C228.49 111.892 227.626 112.126 226.534 112.126ZM235.464 112.126C233.94 112.126 232.734 111.736 231.846 110.956L232.332 109.876C232.824 110.26 233.322 110.536 233.826 110.704C234.33 110.872 234.894 110.956 235.518 110.956C236.202 110.956 236.718 110.842 237.066 110.614C237.426 110.374 237.606 110.032 237.606 109.588C237.606 109.228 237.486 108.94 237.246 108.724C237.006 108.508 236.61 108.34 236.058 108.22L234.528 107.86C233.772 107.692 233.184 107.392 232.764 106.96C232.356 106.528 232.152 106.012 232.152 105.412C232.152 104.62 232.47 103.978 233.106 103.486C233.742 102.982 234.582 102.73 235.626 102.73C236.262 102.73 236.862 102.832 237.426 103.036C237.99 103.24 238.464 103.534 238.848 103.918L238.362 104.98C237.51 104.272 236.598 103.918 235.626 103.918C234.978 103.918 234.474 104.044 234.114 104.296C233.766 104.536 233.592 104.878 233.592 105.322C233.592 105.694 233.7 105.988 233.916 106.204C234.144 106.42 234.504 106.588 234.996 106.708L236.526 107.086C237.366 107.278 237.99 107.578 238.398 107.986C238.806 108.382 239.01 108.904 239.01 109.552C239.01 110.332 238.692 110.956 238.056 111.424C237.42 111.892 236.556 112.126 235.464 112.126Z" fill="#312E37"/>
<path d="M94 27C94 27.5304 93.7893 28.0391 93.4142 28.4142C93.0391 28.7893 92.5304 29 92 29H76C75.4696 29 74.9609 28.7893 74.5858 28.4142C74.2107 28.0391 74 27.5304 74 27V13C74 12.4696 74.2107 11.9609 74.5858 11.5858C74.9609 11.2107 75.4696 11 76 11H81L83 14H92C92.5304 14 93.0391 14.2107 93.4142 14.5858C93.7893 14.9609 94 15.4696 94 16V27Z" stroke="#312E37" stroke-width="2" stroke-linecap="round" stroke-linejoin="round"/>
<path d="M147 60C147 60.5304 146.789 61.0391 146.414 61.4142C146.039 61.7893 145.53 62 145 62H129C128.47 62 127.961 61.7893 127.586 61.4142C127.211 61.0391 127 60.5304 127 60V46C127 45.4696 127.211 44.9609 127.586 44.5858C127.961 44.2107 128.47 44 129 44H134L136 47H145C145.53 47 146.039 47.2107 146.414 47.5858C146.789 47.9609 147 48.4696 147 49V60Z" stroke="#312E37" stroke-width="2" stroke-linecap="round" stroke-linejoin="round"/>
<path d="M147 146C147 146.53 146.789 147.039 146.414 147.414C146.039 147.789 145.53 148 145 148H129C128.47 148 127.961 147.789 127.586 147.414C127.211 147.039 127 146.53 127 146V132C127 131.47 127.211 130.961 127.586 130.586C127.961 130.211 128.47 130 129 130H134L136 133H145C145.53 133 146.039 133.211 146.414 133.586C146.789 133.961 147 134.47 147 135V146Z" stroke="#312E37" stroke-width="2" stroke-linecap="round" stroke-linejoin="round"/>
<path d="M147 175C147 175.53 146.789 176.039 146.414 176.414C146.039 176.789 145.53 177 145 177H129C128.47 177 127.961 176.789 127.586 176.414C127.211 176.039 127 175.53 127 175V161C127 160.47 127.211 159.961 127.586 159.586C127.961 159.211 128.47 159 129 159H134L136 162H145C145.53 162 146.039 162.211 146.414 162.586C146.789 162.961 147 163.47 147 164V175Z" stroke="#312E37" stroke-width="2" stroke-linecap="round" stroke-linejoin="round"/>
<path d="M147 206C147 206.53 146.789 207.039 146.414 207.414C146.039 207.789 145.53 208 145 208H129C128.47 208 127.961 207.789 127.586 207.414C127.211 207.039 127 206.53 127 206V192C127 191.47 127.211 190.961 127.586 190.586C127.961 190.211 128.47 190 129 190H134L136 193H145C145.53 193 146.039 193.211 146.414 193.586C146.789 193.961 147 194.47 147 195V206Z" stroke="#312E37" stroke-width="2" stroke-linecap="round" stroke-linejoin="round"/>
<path d="M108.25 51.375L112.5 55.625L116.75 51.375" stroke="#312E37" stroke-width="1.41667" stroke-linecap="round" stroke-linejoin="round"/>
<path d="M110.375 143.75L114.625 139.5L110.375 135.25" stroke="#312E37" stroke-width="1.41667" stroke-linecap="round" stroke-linejoin="round"/>
<path d="M110.375 172.75L114.625 168.5L110.375 164.25" stroke="#312E37" stroke-width="1.41667" stroke-linecap="round" stroke-linejoin="round"/>
<path d="M110.375 203.75L114.625 199.5L110.375 195.25" stroke="#312E37" stroke-width="1.41667" stroke-linecap="round" stroke-linejoin="round"/>
</svg>
