<svg width="1440" height="566" viewBox="0 0 1440 566" fill="none" xmlns="http://www.w3.org/2000/svg">
<g clip-path="url(#clip0)">
<g opacity="0.9">
<g filter="url(#filter0_dd)">
<rect x="53" y="74" width="136.98" height="121.446" rx="34.5475" fill="#F4F4F4"/>
</g>
<g filter="url(#filter1_dd)">
<rect x="394.742" y="74" width="136.98" height="121.446" rx="34.5475" fill="#F4F4F4"/>
</g>
<g filter="url(#filter2_dd)">
<rect x="565.617" y="74" width="136.98" height="121.446" rx="34.5475" fill="#F4F4F4"/>
</g>
<g filter="url(#filter3_dd)">
<rect x="736.484" y="74" width="136.98" height="121.446" rx="34.5475" fill="#F4F4F4"/>
</g>
<g filter="url(#filter4_dd)">
<rect x="907.355" y="74" width="136.98" height="121.446" rx="34.5475" fill="#F4F4F4"/>
</g>
<g filter="url(#filter5_dd)">
<rect x="1078.23" y="74" width="136.98" height="121.446" rx="34.5475" fill="#F4F4F4"/>
</g>
<g filter="url(#filter6_dd)">
<rect x="144.789" y="222.277" width="136.98" height="121.446" rx="34.5475" fill="#F4F4F4"/>
</g>
<g filter="url(#filter7_dd)">
<rect x="655.992" y="222.277" width="136.98" height="121.446" rx="34.5475" fill="#F4F4F4"/>
</g>
<g filter="url(#filter8_dd)">
<rect x="314.25" y="222.277" width="136.98" height="121.446" rx="34.5475" fill="#F4F4F4"/>
</g>
<g filter="url(#filter9_dd)">
<rect x="825.453" y="222.277" width="136.98" height="121.446" rx="34.5475" fill="#F4F4F4"/>
</g>
<g filter="url(#filter10_dd)">
<rect x="394.742" y="370.555" width="136.98" height="121.446" rx="34.5475" fill="#F4F4F4"/>
</g>
<g filter="url(#filter11_dd)">
<rect x="223.871" y="370.555" width="136.98" height="121.446" rx="34.5475" fill="#F4F4F4"/>
</g>
<g filter="url(#filter12_dd)">
<rect x="907.355" y="370.555" width="136.98" height="121.446" rx="34.5475" fill="#F4F4F4"/>
</g>
<g filter="url(#filter13_dd)">
<rect x="565.617" y="370.555" width="136.98" height="121.446" rx="34.5475" fill="#F4F4F4"/>
</g>
<g filter="url(#filter14_dd)">
<rect x="1078.23" y="370.555" width="136.98" height="121.446" rx="34.5475" fill="#F4F4F4"/>
</g>
<g filter="url(#filter15_dd)">
<rect x="736.484" y="370.555" width="136.98" height="121.446" rx="34.5475" fill="#F4F4F4"/>
</g>
<g filter="url(#filter16_dd)">
<rect x="1249.1" y="370.555" width="136.98" height="121.446" rx="34.5475" fill="#F4F4F4"/>
</g>
<g filter="url(#filter17_dd)">
<rect x="485.121" y="222.277" width="136.98" height="121.446" rx="34.5475" fill="#F4F4F4"/>
</g>
<g filter="url(#filter18_dd)">
<rect x="996.32" y="222.277" width="136.98" height="121.446" rx="34.5475" fill="#F4F4F4"/>
</g>
<g filter="url(#filter19_dd)">
<rect x="1167.2" y="222.277" width="136.98" height="121.446" rx="34.5475" fill="#F4F4F4"/>
</g>
<path d="M138.537 150.968C139.02 151.484 139.262 152.049 139.262 152.661C139.262 153.306 139.02 153.87 138.537 154.354C138.021 154.87 137.456 155.128 136.844 155.128C136.263 155.128 135.683 154.87 135.103 154.354L133.12 152.371C129.895 154.531 126.155 155.612 121.899 155.612C118.158 155.612 114.821 154.789 111.887 153.145C108.985 151.5 106.728 149.211 105.115 146.277C103.503 143.31 102.697 139.957 102.697 136.217C102.697 132.476 103.503 129.139 105.115 126.205C106.728 123.271 108.985 120.981 111.887 119.337C114.821 117.692 118.158 116.87 121.899 116.87C125.607 116.87 128.912 117.692 131.814 119.337C134.748 120.981 137.021 123.271 138.633 126.205C140.278 129.139 141.1 132.476 141.1 136.217C141.1 138.764 140.713 141.134 139.939 143.327C139.198 145.519 138.117 147.454 136.699 149.13L138.537 150.968ZM121.899 151.065C124.801 151.065 127.38 150.34 129.637 148.889L124.994 144.245C124.478 143.665 124.22 143.085 124.22 142.504C124.22 141.892 124.478 141.327 124.994 140.811C125.51 140.296 126.09 140.038 126.735 140.038C127.38 140.038 127.944 140.296 128.428 140.811L133.216 145.648C135.248 142.972 136.263 139.828 136.263 136.217C136.263 133.444 135.651 130.929 134.425 128.671C133.2 126.414 131.491 124.641 129.299 123.351C127.138 122.061 124.672 121.416 121.899 121.416C119.126 121.416 116.643 122.061 114.45 123.351C112.29 124.641 110.597 126.414 109.372 128.671C108.146 130.929 107.534 133.444 107.534 136.217C107.534 138.99 108.146 141.505 109.372 143.762C110.597 146.019 112.306 147.808 114.498 149.13C116.691 150.42 119.158 151.065 121.899 151.065Z" fill="#C6D1D3"/>
<path d="M470.557 150.485C471.299 150.485 471.895 150.694 472.347 151.114C472.798 151.533 473.024 152.081 473.024 152.758C473.024 153.467 472.798 154.048 472.347 154.499C471.895 154.918 471.299 155.128 470.557 155.128H448.695C447.986 155.128 447.39 154.886 446.906 154.402C446.422 153.919 446.18 153.322 446.18 152.613V119.869C446.18 119.127 446.422 118.531 446.906 118.079C447.39 117.596 447.986 117.354 448.695 117.354H470.557C471.299 117.354 471.895 117.579 472.347 118.031C472.798 118.45 473.024 119.014 473.024 119.724C473.024 120.401 472.798 120.949 472.347 121.368C471.895 121.787 471.299 121.997 470.557 121.997H451.211V133.75H465.092C465.801 133.75 466.381 133.976 466.833 134.427C467.317 134.846 467.558 135.394 467.558 136.072C467.558 136.749 467.317 137.313 466.833 137.764C466.381 138.184 465.801 138.393 465.092 138.393H451.211V150.485H470.557Z" fill="#C6D1D3"/>
<path d="M647.226 151.26C647.548 151.775 647.709 152.308 647.709 152.856C647.709 153.501 647.484 154.049 647.032 154.5C646.613 154.919 646.033 155.129 645.291 155.129C644.356 155.129 643.63 154.726 643.114 153.92L634.795 140.571H633.925H627.734V152.614C627.734 153.323 627.492 153.92 627.008 154.403C626.557 154.887 625.961 155.129 625.219 155.129C624.51 155.129 623.913 154.887 623.429 154.403C622.946 153.92 622.704 153.323 622.704 152.614V119.87C622.704 119.128 622.946 118.532 623.429 118.08C623.913 117.597 624.51 117.355 625.219 117.355H633.925C636.311 117.355 638.439 117.854 640.309 118.854C642.212 119.854 643.679 121.256 644.711 123.062C645.775 124.868 646.307 126.931 646.307 129.253C646.307 131.542 645.726 133.574 644.565 135.347C643.405 137.12 641.825 138.459 639.826 139.361L647.226 151.26ZM633.925 135.927C636.117 135.927 637.923 135.315 639.342 134.089C640.761 132.832 641.47 131.22 641.47 129.253C641.47 127.125 640.761 125.384 639.342 124.029C637.923 122.675 636.117 121.998 633.925 121.998H627.734V135.927H633.925Z" fill="#C6D1D3"/>
<path d="M817.658 117.355C818.335 117.355 818.883 117.58 819.302 118.032C819.753 118.451 819.979 118.999 819.979 119.676C819.979 120.353 819.753 120.918 819.302 121.369C818.883 121.788 818.335 121.998 817.658 121.998H807.259V152.614C807.259 153.323 807.017 153.92 806.533 154.403C806.05 154.887 805.453 155.129 804.744 155.129C804.034 155.129 803.438 154.887 802.954 154.403C802.47 153.92 802.229 153.323 802.229 152.614V121.998H791.781C791.104 121.998 790.54 121.788 790.089 121.369C789.669 120.918 789.46 120.353 789.46 119.676C789.46 118.999 789.669 118.451 790.089 118.032C790.54 117.58 791.104 117.355 791.781 117.355H817.658Z" fill="#C6D1D3"/>
<path d="M989.641 117.354C990.254 117.354 990.753 117.579 991.14 118.031C991.56 118.482 991.769 119.03 991.769 119.675C991.769 120.223 991.608 120.755 991.286 121.271L978.275 141.343V152.613C978.275 153.322 978.033 153.919 977.549 154.402C977.066 154.886 976.469 155.128 975.76 155.128C975.083 155.128 974.502 154.886 974.019 154.402C973.535 153.919 973.293 153.322 973.293 152.613V141.343L960.379 121.271C960.025 120.723 959.847 120.207 959.847 119.724C959.847 119.047 960.089 118.482 960.573 118.031C961.089 117.579 961.685 117.354 962.362 117.354C962.878 117.354 963.297 117.467 963.62 117.692C963.942 117.918 964.265 118.273 964.587 118.756L975.905 136.7L987.416 118.563C987.932 117.757 988.674 117.354 989.641 117.354Z" fill="#C6D1D3"/>
<path d="M1131.08 119.869C1131.08 119.127 1131.32 118.531 1131.8 118.079C1132.29 117.596 1132.88 117.354 1133.59 117.354C1134.34 117.354 1134.93 117.596 1135.38 118.079C1135.87 118.531 1136.11 119.127 1136.11 119.869V142.456C1136.11 144.165 1136.56 145.696 1137.46 147.051C1138.4 148.405 1139.67 149.469 1141.28 150.243C1142.93 150.985 1144.8 151.355 1146.89 151.355C1148.89 151.355 1150.68 150.985 1152.26 150.243C1153.84 149.469 1155.07 148.405 1155.94 147.051C1156.84 145.696 1157.29 144.165 1157.29 142.456V119.869C1157.29 119.127 1157.54 118.531 1158.02 118.079C1158.5 117.596 1159.1 117.354 1159.81 117.354C1160.52 117.354 1161.1 117.596 1161.55 118.079C1162.03 118.531 1162.28 119.127 1162.28 119.869V142.456C1162.28 145.035 1161.61 147.357 1160.29 149.421C1159 151.452 1157.18 153.048 1154.83 154.209C1152.51 155.338 1149.86 155.902 1146.89 155.902C1143.83 155.902 1141.09 155.338 1138.67 154.209C1136.29 153.048 1134.42 151.452 1133.06 149.421C1131.74 147.389 1131.08 145.068 1131.08 142.456V119.869Z" fill="#C6D1D3"/>
<path d="M228.712 299.875C228.873 300.294 228.953 300.648 228.953 300.939C228.953 301.616 228.712 302.196 228.228 302.68C227.744 303.163 227.148 303.405 226.438 303.405C225.955 303.405 225.487 303.276 225.036 303.018C224.617 302.728 224.31 302.341 224.117 301.858L221.408 295.086H204.045L201.288 301.858C201.062 302.341 200.74 302.728 200.32 303.018C199.901 303.276 199.45 303.405 198.966 303.405C198.257 303.405 197.66 303.163 197.177 302.68C196.725 302.164 196.5 301.567 196.5 300.89C196.5 300.568 196.58 300.197 196.741 299.778L210.332 267.324C210.816 266.195 211.606 265.631 212.702 265.631C213.863 265.631 214.653 266.195 215.072 267.324L228.712 299.875ZM219.715 290.927L212.799 273.708L205.738 290.927H219.715Z" fill="#C6D1D3"/>
<path d="M730.357 282.028C731.066 282.028 731.647 282.254 732.098 282.705C732.582 283.125 732.824 283.673 732.824 284.35C732.824 285.027 732.582 285.591 732.098 286.043C731.647 286.462 731.066 286.671 730.357 286.671H716.476V300.891C716.476 301.601 716.234 302.197 715.75 302.681C715.267 303.164 714.67 303.406 713.961 303.406C713.251 303.406 712.655 303.164 712.171 302.681C711.688 302.197 711.446 301.601 711.446 300.891V268.147C711.446 267.405 711.688 266.809 712.171 266.358C712.655 265.874 713.251 265.632 713.961 265.632H735.823C736.564 265.632 737.161 265.858 737.612 266.309C738.063 266.728 738.289 267.293 738.289 268.002C738.289 268.679 738.063 269.227 737.612 269.646C737.161 270.066 736.564 270.275 735.823 270.275H716.476V282.028H730.357Z" fill="#C6D1D3"/>
<path d="M382.595 265.197C385.368 265.197 387.705 265.761 389.608 266.89C391.51 268.018 393.122 269.63 394.444 271.726C394.831 272.339 395.025 272.919 395.025 273.467C395.025 274.177 394.702 274.757 394.057 275.209C393.703 275.434 393.284 275.547 392.8 275.547C392.316 275.547 391.865 275.434 391.446 275.209C391.026 274.951 390.704 274.612 390.478 274.193C389.608 272.742 388.511 271.646 387.189 270.904C385.9 270.13 384.255 269.743 382.256 269.743C379.805 269.743 377.822 270.227 376.307 271.194C374.791 272.129 374.034 273.5 374.034 275.305C374.034 276.982 374.711 278.385 376.065 279.513C377.419 280.642 379.838 281.383 383.32 281.738C387.189 282.125 390.188 283.302 392.316 285.269C394.444 287.203 395.508 289.767 395.508 292.959C395.508 295.281 394.88 297.28 393.622 298.957C392.365 300.601 390.688 301.842 388.592 302.681C386.528 303.487 384.304 303.89 381.917 303.89C378.79 303.89 375.936 303.181 373.357 301.762C370.809 300.343 369.052 298.489 368.085 296.2C367.923 295.813 367.843 295.49 367.843 295.232C367.843 294.749 368.02 294.329 368.375 293.975C368.73 293.588 369.213 293.33 369.826 293.201C369.923 293.169 370.084 293.153 370.31 293.153C370.825 293.153 371.309 293.314 371.761 293.636C372.244 293.926 372.599 294.329 372.825 294.845C373.405 296.103 374.55 297.167 376.259 298.038C377.968 298.908 379.854 299.343 381.917 299.343C384.336 299.343 386.383 298.795 388.06 297.699C389.737 296.57 390.575 295.039 390.575 293.104C390.575 291.266 389.866 289.702 388.447 288.413C387.028 287.091 384.868 286.285 381.966 285.994C377.968 285.607 374.824 284.447 372.534 282.512C370.245 280.545 369.1 278.094 369.1 275.16C369.1 273.097 369.681 271.323 370.842 269.84C372.035 268.324 373.647 267.18 375.678 266.406C377.742 265.6 380.047 265.197 382.595 265.197Z" fill="#C6D1D3"/>
<path d="M908.211 283.817C908.92 283.817 909.501 284.059 909.952 284.542C910.436 284.994 910.678 285.59 910.678 286.332V297.891C910.678 298.665 910.42 299.262 909.904 299.681C906.518 302.486 902.568 303.889 898.054 303.889C894.604 303.889 891.444 303.034 888.574 301.326C885.737 299.617 883.496 297.279 881.851 294.312C880.207 291.346 879.385 288.073 879.385 284.494C879.385 280.947 880.207 277.707 881.851 274.772C883.496 271.806 885.737 269.468 888.574 267.759C891.444 266.018 894.604 265.147 898.054 265.147C900.505 265.147 902.617 265.47 904.39 266.115C906.196 266.76 908.017 267.824 909.855 269.307C910.242 269.597 910.5 269.903 910.629 270.226C910.758 270.516 910.823 270.871 910.823 271.29C910.823 271.935 910.581 272.467 910.097 272.886C909.646 273.305 909.098 273.515 908.453 273.515C907.872 273.515 907.324 273.305 906.808 272.886C905.486 271.757 904.197 270.951 902.939 270.468C901.681 269.952 900.053 269.694 898.054 269.694C895.539 269.694 893.217 270.355 891.089 271.677C888.993 272.999 887.317 274.805 886.059 277.094C884.834 279.351 884.221 281.818 884.221 284.494C884.221 287.202 884.834 289.685 886.059 291.942C887.317 294.2 888.993 295.989 891.089 297.311C893.217 298.633 895.539 299.294 898.054 299.294C900.763 299.294 903.358 298.488 905.841 296.876V288.267H899.166C898.425 288.267 897.812 288.057 897.328 287.638C896.877 287.219 896.651 286.687 896.651 286.042C896.651 285.397 896.877 284.865 897.328 284.446C897.812 284.026 898.425 283.817 899.166 283.817H908.211Z" fill="#C6D1D3"/>
<path d="M477.359 447.62C477.714 448.136 477.891 448.684 477.891 449.264C477.891 449.909 477.681 450.473 477.262 450.957C476.843 451.441 476.279 451.683 475.569 451.683C474.763 451.683 474.118 451.376 473.635 450.764L463.139 436.205L452.015 450.957C451.531 451.441 450.951 451.683 450.274 451.683C449.564 451.683 449 451.457 448.581 451.005C448.194 450.554 448 450.006 448 449.361C448 448.716 448.194 448.136 448.581 447.62L459.85 432.626L449.21 417.874C448.887 417.455 448.726 416.955 448.726 416.375C448.726 415.698 448.935 415.118 449.355 414.634C449.774 414.15 450.338 413.908 451.047 413.908C451.886 413.908 452.482 414.15 452.837 414.634L463.236 429.047L474.07 414.634C474.521 414.15 475.118 413.908 475.859 413.908C476.537 413.908 477.069 414.134 477.456 414.586C477.875 415.037 478.084 415.585 478.084 416.23C478.084 416.778 477.907 417.326 477.552 417.874L466.525 432.578L477.359 447.62Z" fill="#C6D1D3"/>
<path d="M280.321 418.359C279.548 418.359 278.951 418.166 278.532 417.779C278.113 417.392 277.919 416.876 277.951 416.231C277.919 415.554 278.129 415.006 278.58 414.586C279.064 414.135 279.677 413.909 280.418 413.909H305.375C306.149 413.909 306.762 414.167 307.213 414.683C307.697 415.167 307.939 415.747 307.939 416.424C307.939 416.94 307.761 417.424 307.407 417.875L283.659 447.234H305.375C306.085 447.234 306.665 447.46 307.116 447.911C307.6 448.33 307.842 448.83 307.842 449.41C307.842 450.12 307.616 450.684 307.165 451.103C306.713 451.49 306.117 451.684 305.375 451.684H279.838C279.096 451.684 278.5 451.426 278.048 450.91C277.597 450.394 277.371 449.797 277.371 449.12C277.371 448.54 277.532 448.04 277.855 447.621L301.506 418.359H280.321Z" fill="#C6D1D3"/>
<path d="M977.107 413.909C979.267 413.909 981.186 414.345 982.862 415.215C984.539 416.054 985.845 417.247 986.78 418.794C987.747 420.31 988.231 422.035 988.231 423.97C988.231 425.55 987.796 426.968 986.925 428.226C986.087 429.483 984.926 430.499 983.443 431.273C985.635 431.789 987.36 432.821 988.618 434.368C989.875 435.916 990.504 437.883 990.504 440.269C990.504 442.462 989.972 444.429 988.908 446.17C987.876 447.911 986.409 449.265 984.507 450.233C982.637 451.2 980.508 451.684 978.122 451.684H965.547C964.838 451.684 964.241 451.442 963.757 450.958C963.274 450.474 963.032 449.878 963.032 449.169V416.424C963.032 415.683 963.274 415.086 963.757 414.635C964.241 414.151 964.838 413.909 965.547 413.909H977.107ZM977.107 429.435C979.009 429.435 980.525 428.967 981.653 428.032C982.814 427.097 983.394 425.743 983.394 423.97C983.394 422.196 982.814 420.858 981.653 419.955C980.525 419.02 979.009 418.553 977.107 418.553H968.062V429.435H977.107ZM978.122 447.04C980.379 447.04 982.201 446.46 983.588 445.299C984.974 444.106 985.667 442.429 985.667 440.269C985.667 438.27 984.974 436.738 983.588 435.674C982.233 434.61 980.412 434.078 978.122 434.078H968.062V447.04H978.122Z" fill="#C6D1D3"/>
<path d="M638.218 413.426C640.669 413.426 642.781 413.748 644.554 414.393C646.36 415.038 648.182 416.102 650.019 417.585C650.406 417.875 650.664 418.182 650.793 418.504C650.922 418.794 650.987 419.149 650.987 419.568C650.987 420.213 650.745 420.745 650.261 421.164C649.81 421.584 649.278 421.793 648.665 421.793C648.053 421.793 647.488 421.584 646.972 421.164C645.65 420.036 644.361 419.23 643.103 418.746C641.846 418.23 640.217 417.972 638.218 417.972C635.703 417.972 633.381 418.633 631.253 419.955C629.157 421.277 627.481 423.083 626.223 425.372C624.998 427.629 624.385 430.096 624.385 432.772C624.385 435.481 624.998 437.964 626.223 440.221C627.481 442.478 629.157 444.267 631.253 445.589C633.381 446.911 635.703 447.572 638.218 447.572C641.313 447.572 644.28 446.508 647.117 444.38C647.666 443.993 648.198 443.8 648.714 443.8C649.326 443.8 649.826 444.026 650.213 444.477C650.632 444.896 650.842 445.46 650.842 446.17C650.842 446.847 650.584 447.443 650.068 447.959C646.585 450.765 642.636 452.167 638.218 452.167C634.768 452.167 631.608 451.313 628.738 449.604C625.901 447.895 623.66 445.557 622.015 442.591C620.371 439.624 619.549 436.351 619.549 432.772C619.549 429.225 620.371 425.985 622.015 423.051C623.66 420.084 625.901 417.746 628.738 416.037C631.608 414.296 634.768 413.426 638.218 413.426Z" fill="#C6D1D3"/>
<path d="M1156.57 416.423C1156.57 415.682 1156.81 415.085 1157.29 414.634C1157.78 414.15 1158.37 413.908 1159.08 413.908C1159.79 413.908 1160.37 414.15 1160.82 414.634C1161.31 415.085 1161.55 415.682 1161.55 416.423V449.168C1161.55 449.909 1161.31 450.522 1160.82 451.005C1160.37 451.457 1159.79 451.683 1159.08 451.683C1158.73 451.683 1158.36 451.618 1157.97 451.489C1157.62 451.328 1157.34 451.102 1157.15 450.812L1136.06 422.759V449.168C1136.06 449.877 1135.82 450.473 1135.34 450.957C1134.88 451.441 1134.29 451.683 1133.55 451.683C1132.84 451.683 1132.24 451.457 1131.76 451.005C1131.3 450.522 1131.08 449.909 1131.08 449.168V416.423C1131.08 415.682 1131.3 415.085 1131.76 414.634C1132.24 414.15 1132.84 413.908 1133.55 413.908C1133.9 413.908 1134.25 414.005 1134.61 414.199C1134.96 414.36 1135.25 414.569 1135.48 414.827L1156.57 442.88V416.423Z" fill="#C6D1D3"/>
<path d="M819.726 413.909C820.435 413.909 820.983 414.103 821.37 414.49C821.789 414.877 821.999 415.376 821.999 415.989C821.999 416.376 821.902 416.795 821.709 417.247L807.392 450.087C806.973 451.152 806.215 451.684 805.119 451.684C804.087 451.684 803.33 451.152 802.846 450.087L788.675 417.682C788.417 417.005 788.288 416.441 788.288 415.989C788.288 415.344 788.481 414.844 788.868 414.49C789.287 414.103 789.851 413.909 790.561 413.909C791.689 413.909 792.463 414.409 792.882 415.409L805.071 444.622L817.453 415.409C817.678 414.828 817.969 414.441 818.323 414.248C818.678 414.022 819.145 413.909 819.726 413.909Z" fill="#C6D1D3"/>
<path d="M1334.43 413.908C1335.14 413.908 1335.74 414.15 1336.22 414.634C1336.71 415.118 1336.95 415.714 1336.95 416.423V449.168C1336.95 449.877 1336.69 450.473 1336.17 450.957C1335.69 451.441 1335.11 451.683 1334.43 451.683C1333.72 451.683 1333.13 451.441 1332.64 450.957C1332.16 450.473 1331.92 449.877 1331.92 449.168V425.129L1320.21 448.974C1319.67 449.812 1318.94 450.232 1318.04 450.232C1316.97 450.232 1316.2 449.732 1315.72 448.732L1304.16 425.565V449.168C1304.16 449.877 1303.91 450.473 1303.43 450.957C1302.95 451.441 1302.35 451.683 1301.64 451.683C1300.93 451.683 1300.33 451.441 1299.85 450.957C1299.37 450.473 1299.13 449.877 1299.13 449.168V416.423C1299.13 415.714 1299.37 415.118 1299.85 414.634C1300.33 414.15 1300.93 413.908 1301.64 413.908C1302.61 413.908 1303.35 414.36 1303.87 415.263L1318.23 444.041L1332.21 415.263C1332.72 414.36 1333.47 413.908 1334.43 413.908Z" fill="#C6D1D3"/>
<path d="M552.067 265.632C555.711 265.632 558.951 266.438 561.789 268.05C564.626 269.663 566.835 271.904 568.415 274.773C569.995 277.611 570.785 280.851 570.785 284.495C570.785 288.139 569.995 291.395 568.415 294.265C566.835 297.135 564.626 299.376 561.789 300.988C558.951 302.6 555.711 303.406 552.067 303.406H543.313C542.603 303.406 542.007 303.164 541.523 302.681C541.039 302.197 540.798 301.601 540.798 300.891V268.147C540.798 267.405 541.039 266.809 541.523 266.358C542.007 265.874 542.603 265.632 543.313 265.632H552.067ZM552.067 298.957C554.743 298.957 557.129 298.344 559.225 297.119C561.353 295.893 562.998 294.184 564.159 291.992C565.352 289.767 565.948 287.268 565.948 284.495C565.948 281.722 565.352 279.239 564.159 277.047C562.998 274.854 561.353 273.145 559.225 271.92C557.129 270.694 554.743 270.082 552.067 270.082H545.828V298.957H552.067Z" fill="#C6D1D3"/>
<path d="M1076.64 268.147C1076.64 267.405 1076.89 266.809 1077.37 266.358C1077.85 265.874 1078.45 265.632 1079.16 265.632C1079.87 265.632 1080.45 265.874 1080.9 266.358C1081.38 266.809 1081.63 267.405 1081.63 268.147V300.891C1081.63 301.633 1081.38 302.245 1080.9 302.729C1080.45 303.181 1079.87 303.406 1079.16 303.406C1078.45 303.406 1077.85 303.164 1077.37 302.681C1076.89 302.197 1076.64 301.601 1076.64 300.891V286.478H1054.2V300.891C1054.2 301.601 1053.96 302.197 1053.48 302.681C1053.03 303.164 1052.43 303.406 1051.69 303.406C1050.98 303.406 1050.38 303.164 1049.9 302.681C1049.41 302.197 1049.17 301.601 1049.17 300.891V268.147C1049.17 267.405 1049.41 266.809 1049.9 266.358C1050.38 265.874 1050.98 265.632 1051.69 265.632C1052.43 265.632 1053.03 265.874 1053.48 266.358C1053.96 266.809 1054.2 267.405 1054.2 268.147V282.028H1076.64V268.147Z" fill="#C6D1D3"/>
<path d="M1244.89 292.282C1244.89 294.539 1244.39 296.554 1243.39 298.328C1242.39 300.069 1241 301.439 1239.23 302.439C1237.49 303.406 1235.49 303.89 1233.23 303.89C1230.97 303.89 1228.96 303.406 1227.18 302.439C1225.44 301.439 1224.07 300.069 1223.07 298.328C1222.11 296.554 1221.62 294.539 1221.62 292.282C1221.62 291.54 1221.86 290.944 1222.35 290.492C1222.83 290.009 1223.43 289.767 1224.14 289.767C1224.88 289.767 1225.48 290.009 1225.93 290.492C1226.41 290.944 1226.65 291.54 1226.65 292.282C1226.65 294.346 1227.26 296.038 1228.49 297.36C1229.72 298.682 1231.3 299.343 1233.23 299.343C1235.16 299.343 1236.74 298.682 1237.97 297.36C1239.23 296.038 1239.86 294.346 1239.86 292.282V268.147C1239.86 267.405 1240.08 266.809 1240.53 266.358C1241.02 265.874 1241.61 265.632 1242.32 265.632C1243.06 265.632 1243.68 265.874 1244.16 266.358C1244.64 266.809 1244.89 267.405 1244.89 268.147V292.282Z" fill="#C6D1D3"/>
<g filter="url(#filter20_dd)">
<rect x="224" y="74" width="136" height="121" rx="34" fill="#F56F54"/>
</g>
<path d="M312.901 119.226C313.546 119.226 314.03 119.419 314.352 119.806C314.675 120.193 314.836 120.709 314.836 121.354C314.836 121.838 314.771 122.289 314.642 122.708L304.921 154.969C304.695 155.581 304.356 156.081 303.905 156.468C303.486 156.823 302.986 157 302.406 157C301.825 157 301.309 156.823 300.858 156.468C300.406 156.081 300.084 155.597 299.89 155.017L292.684 127.158L285.381 154.969C285.155 155.581 284.816 156.081 284.365 156.468C283.946 156.823 283.446 157 282.865 157C282.285 157 281.769 156.823 281.318 156.468C280.866 156.113 280.544 155.63 280.35 155.017L270.629 122.708C270.5 122.289 270.435 121.854 270.435 121.402C270.435 120.725 270.613 120.193 270.967 119.806C271.354 119.419 271.87 119.226 272.515 119.226C273.095 119.226 273.595 119.387 274.014 119.709C274.466 120.032 274.788 120.499 274.982 121.112L282.914 148.681L290.217 121.402C290.346 120.919 290.636 120.516 291.088 120.193C291.539 119.871 292.055 119.709 292.636 119.709C293.184 119.709 293.683 119.855 294.135 120.145C294.586 120.435 294.876 120.838 295.005 121.354L302.406 148.874L310.434 120.87C310.596 120.29 310.87 119.871 311.257 119.613C311.676 119.355 312.224 119.226 312.901 119.226Z" fill="white"/>
</g>
</g>
<defs>
<filter id="filter0_dd" x="-9.18548" y="11.8145" width="261.351" height="245.817" filterUnits="userSpaceOnUse" color-interpolation-filters="sRGB">
<feFlood flood-opacity="0" result="BackgroundImageFix"/>
<feColorMatrix in="SourceAlpha" type="matrix" values="0 0 0 0 0 0 0 0 0 0 0 0 0 0 0 0 0 0 127 0"/>
<feOffset dx="-20.7285" dy="-20.7285"/>
<feGaussianBlur stdDeviation="20.7285"/>
<feColorMatrix type="matrix" values="0 0 0 0 1 0 0 0 0 1 0 0 0 0 1 0 0 0 1 0"/>
<feBlend mode="normal" in2="BackgroundImageFix" result="effect1_dropShadow"/>
<feColorMatrix in="SourceAlpha" type="matrix" values="0 0 0 0 0 0 0 0 0 0 0 0 0 0 0 0 0 0 127 0"/>
<feOffset dx="20.7285" dy="20.7285"/>
<feGaussianBlur stdDeviation="20.7285"/>
<feColorMatrix type="matrix" values="0 0 0 0 0.796078 0 0 0 0 0.796078 0 0 0 0 0.796078 0 0 0 0.74 0"/>
<feBlend mode="normal" in2="effect1_dropShadow" result="effect2_dropShadow"/>
<feBlend mode="normal" in="SourceGraphic" in2="effect2_dropShadow" result="shape"/>
</filter>
<filter id="filter1_dd" x="332.557" y="11.8145" width="261.351" height="245.817" filterUnits="userSpaceOnUse" color-interpolation-filters="sRGB">
<feFlood flood-opacity="0" result="BackgroundImageFix"/>
<feColorMatrix in="SourceAlpha" type="matrix" values="0 0 0 0 0 0 0 0 0 0 0 0 0 0 0 0 0 0 127 0"/>
<feOffset dx="-20.7285" dy="-20.7285"/>
<feGaussianBlur stdDeviation="20.7285"/>
<feColorMatrix type="matrix" values="0 0 0 0 1 0 0 0 0 1 0 0 0 0 1 0 0 0 1 0"/>
<feBlend mode="normal" in2="BackgroundImageFix" result="effect1_dropShadow"/>
<feColorMatrix in="SourceAlpha" type="matrix" values="0 0 0 0 0 0 0 0 0 0 0 0 0 0 0 0 0 0 127 0"/>
<feOffset dx="20.7285" dy="20.7285"/>
<feGaussianBlur stdDeviation="20.7285"/>
<feColorMatrix type="matrix" values="0 0 0 0 0.796078 0 0 0 0 0.796078 0 0 0 0 0.796078 0 0 0 0.74 0"/>
<feBlend mode="normal" in2="effect1_dropShadow" result="effect2_dropShadow"/>
<feBlend mode="normal" in="SourceGraphic" in2="effect2_dropShadow" result="shape"/>
</filter>
<filter id="filter2_dd" x="503.432" y="11.8145" width="261.351" height="245.817" filterUnits="userSpaceOnUse" color-interpolation-filters="sRGB">
<feFlood flood-opacity="0" result="BackgroundImageFix"/>
<feColorMatrix in="SourceAlpha" type="matrix" values="0 0 0 0 0 0 0 0 0 0 0 0 0 0 0 0 0 0 127 0"/>
<feOffset dx="-20.7285" dy="-20.7285"/>
<feGaussianBlur stdDeviation="20.7285"/>
<feColorMatrix type="matrix" values="0 0 0 0 1 0 0 0 0 1 0 0 0 0 1 0 0 0 1 0"/>
<feBlend mode="normal" in2="BackgroundImageFix" result="effect1_dropShadow"/>
<feColorMatrix in="SourceAlpha" type="matrix" values="0 0 0 0 0 0 0 0 0 0 0 0 0 0 0 0 0 0 127 0"/>
<feOffset dx="20.7285" dy="20.7285"/>
<feGaussianBlur stdDeviation="20.7285"/>
<feColorMatrix type="matrix" values="0 0 0 0 0.796078 0 0 0 0 0.796078 0 0 0 0 0.796078 0 0 0 0.74 0"/>
<feBlend mode="normal" in2="effect1_dropShadow" result="effect2_dropShadow"/>
<feBlend mode="normal" in="SourceGraphic" in2="effect2_dropShadow" result="shape"/>
</filter>
<filter id="filter3_dd" x="674.299" y="11.8145" width="261.351" height="245.817" filterUnits="userSpaceOnUse" color-interpolation-filters="sRGB">
<feFlood flood-opacity="0" result="BackgroundImageFix"/>
<feColorMatrix in="SourceAlpha" type="matrix" values="0 0 0 0 0 0 0 0 0 0 0 0 0 0 0 0 0 0 127 0"/>
<feOffset dx="-20.7285" dy="-20.7285"/>
<feGaussianBlur stdDeviation="20.7285"/>
<feColorMatrix type="matrix" values="0 0 0 0 1 0 0 0 0 1 0 0 0 0 1 0 0 0 1 0"/>
<feBlend mode="normal" in2="BackgroundImageFix" result="effect1_dropShadow"/>
<feColorMatrix in="SourceAlpha" type="matrix" values="0 0 0 0 0 0 0 0 0 0 0 0 0 0 0 0 0 0 127 0"/>
<feOffset dx="20.7285" dy="20.7285"/>
<feGaussianBlur stdDeviation="20.7285"/>
<feColorMatrix type="matrix" values="0 0 0 0 0.796078 0 0 0 0 0.796078 0 0 0 0 0.796078 0 0 0 0.74 0"/>
<feBlend mode="normal" in2="effect1_dropShadow" result="effect2_dropShadow"/>
<feBlend mode="normal" in="SourceGraphic" in2="effect2_dropShadow" result="shape"/>
</filter>
<filter id="filter4_dd" x="845.17" y="11.8145" width="261.351" height="245.817" filterUnits="userSpaceOnUse" color-interpolation-filters="sRGB">
<feFlood flood-opacity="0" result="BackgroundImageFix"/>
<feColorMatrix in="SourceAlpha" type="matrix" values="0 0 0 0 0 0 0 0 0 0 0 0 0 0 0 0 0 0 127 0"/>
<feOffset dx="-20.7285" dy="-20.7285"/>
<feGaussianBlur stdDeviation="20.7285"/>
<feColorMatrix type="matrix" values="0 0 0 0 1 0 0 0 0 1 0 0 0 0 1 0 0 0 1 0"/>
<feBlend mode="normal" in2="BackgroundImageFix" result="effect1_dropShadow"/>
<feColorMatrix in="SourceAlpha" type="matrix" values="0 0 0 0 0 0 0 0 0 0 0 0 0 0 0 0 0 0 127 0"/>
<feOffset dx="20.7285" dy="20.7285"/>
<feGaussianBlur stdDeviation="20.7285"/>
<feColorMatrix type="matrix" values="0 0 0 0 0.796078 0 0 0 0 0.796078 0 0 0 0 0.796078 0 0 0 0.74 0"/>
<feBlend mode="normal" in2="effect1_dropShadow" result="effect2_dropShadow"/>
<feBlend mode="normal" in="SourceGraphic" in2="effect2_dropShadow" result="shape"/>
</filter>
<filter id="filter5_dd" x="1016.04" y="11.8145" width="261.351" height="245.817" filterUnits="userSpaceOnUse" color-interpolation-filters="sRGB">
<feFlood flood-opacity="0" result="BackgroundImageFix"/>
<feColorMatrix in="SourceAlpha" type="matrix" values="0 0 0 0 0 0 0 0 0 0 0 0 0 0 0 0 0 0 127 0"/>
<feOffset dx="-20.7285" dy="-20.7285"/>
<feGaussianBlur stdDeviation="20.7285"/>
<feColorMatrix type="matrix" values="0 0 0 0 1 0 0 0 0 1 0 0 0 0 1 0 0 0 1 0"/>
<feBlend mode="normal" in2="BackgroundImageFix" result="effect1_dropShadow"/>
<feColorMatrix in="SourceAlpha" type="matrix" values="0 0 0 0 0 0 0 0 0 0 0 0 0 0 0 0 0 0 127 0"/>
<feOffset dx="20.7285" dy="20.7285"/>
<feGaussianBlur stdDeviation="20.7285"/>
<feColorMatrix type="matrix" values="0 0 0 0 0.796078 0 0 0 0 0.796078 0 0 0 0 0.796078 0 0 0 0.74 0"/>
<feBlend mode="normal" in2="effect1_dropShadow" result="effect2_dropShadow"/>
<feBlend mode="normal" in="SourceGraphic" in2="effect2_dropShadow" result="shape"/>
</filter>
<filter id="filter6_dd" x="82.6036" y="160.092" width="261.351" height="245.817" filterUnits="userSpaceOnUse" color-interpolation-filters="sRGB">
<feFlood flood-opacity="0" result="BackgroundImageFix"/>
<feColorMatrix in="SourceAlpha" type="matrix" values="0 0 0 0 0 0 0 0 0 0 0 0 0 0 0 0 0 0 127 0"/>
<feOffset dx="-20.7285" dy="-20.7285"/>
<feGaussianBlur stdDeviation="20.7285"/>
<feColorMatrix type="matrix" values="0 0 0 0 1 0 0 0 0 1 0 0 0 0 1 0 0 0 1 0"/>
<feBlend mode="normal" in2="BackgroundImageFix" result="effect1_dropShadow"/>
<feColorMatrix in="SourceAlpha" type="matrix" values="0 0 0 0 0 0 0 0 0 0 0 0 0 0 0 0 0 0 127 0"/>
<feOffset dx="20.7285" dy="20.7285"/>
<feGaussianBlur stdDeviation="20.7285"/>
<feColorMatrix type="matrix" values="0 0 0 0 0.796078 0 0 0 0 0.796078 0 0 0 0 0.796078 0 0 0 0.74 0"/>
<feBlend mode="normal" in2="effect1_dropShadow" result="effect2_dropShadow"/>
<feBlend mode="normal" in="SourceGraphic" in2="effect2_dropShadow" result="shape"/>
</filter>
<filter id="filter7_dd" x="593.807" y="160.092" width="261.351" height="245.817" filterUnits="userSpaceOnUse" color-interpolation-filters="sRGB">
<feFlood flood-opacity="0" result="BackgroundImageFix"/>
<feColorMatrix in="SourceAlpha" type="matrix" values="0 0 0 0 0 0 0 0 0 0 0 0 0 0 0 0 0 0 127 0"/>
<feOffset dx="-20.7285" dy="-20.7285"/>
<feGaussianBlur stdDeviation="20.7285"/>
<feColorMatrix type="matrix" values="0 0 0 0 1 0 0 0 0 1 0 0 0 0 1 0 0 0 1 0"/>
<feBlend mode="normal" in2="BackgroundImageFix" result="effect1_dropShadow"/>
<feColorMatrix in="SourceAlpha" type="matrix" values="0 0 0 0 0 0 0 0 0 0 0 0 0 0 0 0 0 0 127 0"/>
<feOffset dx="20.7285" dy="20.7285"/>
<feGaussianBlur stdDeviation="20.7285"/>
<feColorMatrix type="matrix" values="0 0 0 0 0.796078 0 0 0 0 0.796078 0 0 0 0 0.796078 0 0 0 0.74 0"/>
<feBlend mode="normal" in2="effect1_dropShadow" result="effect2_dropShadow"/>
<feBlend mode="normal" in="SourceGraphic" in2="effect2_dropShadow" result="shape"/>
</filter>
<filter id="filter8_dd" x="252.065" y="160.092" width="261.351" height="245.817" filterUnits="userSpaceOnUse" color-interpolation-filters="sRGB">
<feFlood flood-opacity="0" result="BackgroundImageFix"/>
<feColorMatrix in="SourceAlpha" type="matrix" values="0 0 0 0 0 0 0 0 0 0 0 0 0 0 0 0 0 0 127 0"/>
<feOffset dx="-20.7285" dy="-20.7285"/>
<feGaussianBlur stdDeviation="20.7285"/>
<feColorMatrix type="matrix" values="0 0 0 0 1 0 0 0 0 1 0 0 0 0 1 0 0 0 1 0"/>
<feBlend mode="normal" in2="BackgroundImageFix" result="effect1_dropShadow"/>
<feColorMatrix in="SourceAlpha" type="matrix" values="0 0 0 0 0 0 0 0 0 0 0 0 0 0 0 0 0 0 127 0"/>
<feOffset dx="20.7285" dy="20.7285"/>
<feGaussianBlur stdDeviation="20.7285"/>
<feColorMatrix type="matrix" values="0 0 0 0 0.796078 0 0 0 0 0.796078 0 0 0 0 0.796078 0 0 0 0.74 0"/>
<feBlend mode="normal" in2="effect1_dropShadow" result="effect2_dropShadow"/>
<feBlend mode="normal" in="SourceGraphic" in2="effect2_dropShadow" result="shape"/>
</filter>
<filter id="filter9_dd" x="763.268" y="160.092" width="261.351" height="245.817" filterUnits="userSpaceOnUse" color-interpolation-filters="sRGB">
<feFlood flood-opacity="0" result="BackgroundImageFix"/>
<feColorMatrix in="SourceAlpha" type="matrix" values="0 0 0 0 0 0 0 0 0 0 0 0 0 0 0 0 0 0 127 0"/>
<feOffset dx="-20.7285" dy="-20.7285"/>
<feGaussianBlur stdDeviation="20.7285"/>
<feColorMatrix type="matrix" values="0 0 0 0 1 0 0 0 0 1 0 0 0 0 1 0 0 0 1 0"/>
<feBlend mode="normal" in2="BackgroundImageFix" result="effect1_dropShadow"/>
<feColorMatrix in="SourceAlpha" type="matrix" values="0 0 0 0 0 0 0 0 0 0 0 0 0 0 0 0 0 0 127 0"/>
<feOffset dx="20.7285" dy="20.7285"/>
<feGaussianBlur stdDeviation="20.7285"/>
<feColorMatrix type="matrix" values="0 0 0 0 0.796078 0 0 0 0 0.796078 0 0 0 0 0.796078 0 0 0 0.74 0"/>
<feBlend mode="normal" in2="effect1_dropShadow" result="effect2_dropShadow"/>
<feBlend mode="normal" in="SourceGraphic" in2="effect2_dropShadow" result="shape"/>
</filter>
<filter id="filter10_dd" x="332.557" y="308.369" width="261.351" height="245.817" filterUnits="userSpaceOnUse" color-interpolation-filters="sRGB">
<feFlood flood-opacity="0" result="BackgroundImageFix"/>
<feColorMatrix in="SourceAlpha" type="matrix" values="0 0 0 0 0 0 0 0 0 0 0 0 0 0 0 0 0 0 127 0"/>
<feOffset dx="-20.7285" dy="-20.7285"/>
<feGaussianBlur stdDeviation="20.7285"/>
<feColorMatrix type="matrix" values="0 0 0 0 1 0 0 0 0 1 0 0 0 0 1 0 0 0 1 0"/>
<feBlend mode="normal" in2="BackgroundImageFix" result="effect1_dropShadow"/>
<feColorMatrix in="SourceAlpha" type="matrix" values="0 0 0 0 0 0 0 0 0 0 0 0 0 0 0 0 0 0 127 0"/>
<feOffset dx="20.7285" dy="20.7285"/>
<feGaussianBlur stdDeviation="20.7285"/>
<feColorMatrix type="matrix" values="0 0 0 0 0.796078 0 0 0 0 0.796078 0 0 0 0 0.796078 0 0 0 0.74 0"/>
<feBlend mode="normal" in2="effect1_dropShadow" result="effect2_dropShadow"/>
<feBlend mode="normal" in="SourceGraphic" in2="effect2_dropShadow" result="shape"/>
</filter>
<filter id="filter11_dd" x="161.686" y="308.369" width="261.351" height="245.817" filterUnits="userSpaceOnUse" color-interpolation-filters="sRGB">
<feFlood flood-opacity="0" result="BackgroundImageFix"/>
<feColorMatrix in="SourceAlpha" type="matrix" values="0 0 0 0 0 0 0 0 0 0 0 0 0 0 0 0 0 0 127 0"/>
<feOffset dx="-20.7285" dy="-20.7285"/>
<feGaussianBlur stdDeviation="20.7285"/>
<feColorMatrix type="matrix" values="0 0 0 0 1 0 0 0 0 1 0 0 0 0 1 0 0 0 1 0"/>
<feBlend mode="normal" in2="BackgroundImageFix" result="effect1_dropShadow"/>
<feColorMatrix in="SourceAlpha" type="matrix" values="0 0 0 0 0 0 0 0 0 0 0 0 0 0 0 0 0 0 127 0"/>
<feOffset dx="20.7285" dy="20.7285"/>
<feGaussianBlur stdDeviation="20.7285"/>
<feColorMatrix type="matrix" values="0 0 0 0 0.796078 0 0 0 0 0.796078 0 0 0 0 0.796078 0 0 0 0.74 0"/>
<feBlend mode="normal" in2="effect1_dropShadow" result="effect2_dropShadow"/>
<feBlend mode="normal" in="SourceGraphic" in2="effect2_dropShadow" result="shape"/>
</filter>
<filter id="filter12_dd" x="845.17" y="308.369" width="261.351" height="245.817" filterUnits="userSpaceOnUse" color-interpolation-filters="sRGB">
<feFlood flood-opacity="0" result="BackgroundImageFix"/>
<feColorMatrix in="SourceAlpha" type="matrix" values="0 0 0 0 0 0 0 0 0 0 0 0 0 0 0 0 0 0 127 0"/>
<feOffset dx="-20.7285" dy="-20.7285"/>
<feGaussianBlur stdDeviation="20.7285"/>
<feColorMatrix type="matrix" values="0 0 0 0 1 0 0 0 0 1 0 0 0 0 1 0 0 0 1 0"/>
<feBlend mode="normal" in2="BackgroundImageFix" result="effect1_dropShadow"/>
<feColorMatrix in="SourceAlpha" type="matrix" values="0 0 0 0 0 0 0 0 0 0 0 0 0 0 0 0 0 0 127 0"/>
<feOffset dx="20.7285" dy="20.7285"/>
<feGaussianBlur stdDeviation="20.7285"/>
<feColorMatrix type="matrix" values="0 0 0 0 0.796078 0 0 0 0 0.796078 0 0 0 0 0.796078 0 0 0 0.74 0"/>
<feBlend mode="normal" in2="effect1_dropShadow" result="effect2_dropShadow"/>
<feBlend mode="normal" in="SourceGraphic" in2="effect2_dropShadow" result="shape"/>
</filter>
<filter id="filter13_dd" x="503.432" y="308.369" width="261.351" height="245.817" filterUnits="userSpaceOnUse" color-interpolation-filters="sRGB">
<feFlood flood-opacity="0" result="BackgroundImageFix"/>
<feColorMatrix in="SourceAlpha" type="matrix" values="0 0 0 0 0 0 0 0 0 0 0 0 0 0 0 0 0 0 127 0"/>
<feOffset dx="-20.7285" dy="-20.7285"/>
<feGaussianBlur stdDeviation="20.7285"/>
<feColorMatrix type="matrix" values="0 0 0 0 1 0 0 0 0 1 0 0 0 0 1 0 0 0 1 0"/>
<feBlend mode="normal" in2="BackgroundImageFix" result="effect1_dropShadow"/>
<feColorMatrix in="SourceAlpha" type="matrix" values="0 0 0 0 0 0 0 0 0 0 0 0 0 0 0 0 0 0 127 0"/>
<feOffset dx="20.7285" dy="20.7285"/>
<feGaussianBlur stdDeviation="20.7285"/>
<feColorMatrix type="matrix" values="0 0 0 0 0.796078 0 0 0 0 0.796078 0 0 0 0 0.796078 0 0 0 0.74 0"/>
<feBlend mode="normal" in2="effect1_dropShadow" result="effect2_dropShadow"/>
<feBlend mode="normal" in="SourceGraphic" in2="effect2_dropShadow" result="shape"/>
</filter>
<filter id="filter14_dd" x="1016.04" y="308.369" width="261.351" height="245.817" filterUnits="userSpaceOnUse" color-interpolation-filters="sRGB">
<feFlood flood-opacity="0" result="BackgroundImageFix"/>
<feColorMatrix in="SourceAlpha" type="matrix" values="0 0 0 0 0 0 0 0 0 0 0 0 0 0 0 0 0 0 127 0"/>
<feOffset dx="-20.7285" dy="-20.7285"/>
<feGaussianBlur stdDeviation="20.7285"/>
<feColorMatrix type="matrix" values="0 0 0 0 1 0 0 0 0 1 0 0 0 0 1 0 0 0 1 0"/>
<feBlend mode="normal" in2="BackgroundImageFix" result="effect1_dropShadow"/>
<feColorMatrix in="SourceAlpha" type="matrix" values="0 0 0 0 0 0 0 0 0 0 0 0 0 0 0 0 0 0 127 0"/>
<feOffset dx="20.7285" dy="20.7285"/>
<feGaussianBlur stdDeviation="20.7285"/>
<feColorMatrix type="matrix" values="0 0 0 0 0.796078 0 0 0 0 0.796078 0 0 0 0 0.796078 0 0 0 0.74 0"/>
<feBlend mode="normal" in2="effect1_dropShadow" result="effect2_dropShadow"/>
<feBlend mode="normal" in="SourceGraphic" in2="effect2_dropShadow" result="shape"/>
</filter>
<filter id="filter15_dd" x="674.299" y="308.369" width="261.351" height="245.817" filterUnits="userSpaceOnUse" color-interpolation-filters="sRGB">
<feFlood flood-opacity="0" result="BackgroundImageFix"/>
<feColorMatrix in="SourceAlpha" type="matrix" values="0 0 0 0 0 0 0 0 0 0 0 0 0 0 0 0 0 0 127 0"/>
<feOffset dx="-20.7285" dy="-20.7285"/>
<feGaussianBlur stdDeviation="20.7285"/>
<feColorMatrix type="matrix" values="0 0 0 0 1 0 0 0 0 1 0 0 0 0 1 0 0 0 1 0"/>
<feBlend mode="normal" in2="BackgroundImageFix" result="effect1_dropShadow"/>
<feColorMatrix in="SourceAlpha" type="matrix" values="0 0 0 0 0 0 0 0 0 0 0 0 0 0 0 0 0 0 127 0"/>
<feOffset dx="20.7285" dy="20.7285"/>
<feGaussianBlur stdDeviation="20.7285"/>
<feColorMatrix type="matrix" values="0 0 0 0 0.796078 0 0 0 0 0.796078 0 0 0 0 0.796078 0 0 0 0.74 0"/>
<feBlend mode="normal" in2="effect1_dropShadow" result="effect2_dropShadow"/>
<feBlend mode="normal" in="SourceGraphic" in2="effect2_dropShadow" result="shape"/>
</filter>
<filter id="filter16_dd" x="1186.92" y="308.369" width="261.351" height="245.817" filterUnits="userSpaceOnUse" color-interpolation-filters="sRGB">
<feFlood flood-opacity="0" result="BackgroundImageFix"/>
<feColorMatrix in="SourceAlpha" type="matrix" values="0 0 0 0 0 0 0 0 0 0 0 0 0 0 0 0 0 0 127 0"/>
<feOffset dx="-20.7285" dy="-20.7285"/>
<feGaussianBlur stdDeviation="20.7285"/>
<feColorMatrix type="matrix" values="0 0 0 0 1 0 0 0 0 1 0 0 0 0 1 0 0 0 1 0"/>
<feBlend mode="normal" in2="BackgroundImageFix" result="effect1_dropShadow"/>
<feColorMatrix in="SourceAlpha" type="matrix" values="0 0 0 0 0 0 0 0 0 0 0 0 0 0 0 0 0 0 127 0"/>
<feOffset dx="20.7285" dy="20.7285"/>
<feGaussianBlur stdDeviation="20.7285"/>
<feColorMatrix type="matrix" values="0 0 0 0 0.796078 0 0 0 0 0.796078 0 0 0 0 0.796078 0 0 0 0.74 0"/>
<feBlend mode="normal" in2="effect1_dropShadow" result="effect2_dropShadow"/>
<feBlend mode="normal" in="SourceGraphic" in2="effect2_dropShadow" result="shape"/>
</filter>
<filter id="filter17_dd" x="422.936" y="160.092" width="261.351" height="245.817" filterUnits="userSpaceOnUse" color-interpolation-filters="sRGB">
<feFlood flood-opacity="0" result="BackgroundImageFix"/>
<feColorMatrix in="SourceAlpha" type="matrix" values="0 0 0 0 0 0 0 0 0 0 0 0 0 0 0 0 0 0 127 0"/>
<feOffset dx="-20.7285" dy="-20.7285"/>
<feGaussianBlur stdDeviation="20.7285"/>
<feColorMatrix type="matrix" values="0 0 0 0 1 0 0 0 0 1 0 0 0 0 1 0 0 0 1 0"/>
<feBlend mode="normal" in2="BackgroundImageFix" result="effect1_dropShadow"/>
<feColorMatrix in="SourceAlpha" type="matrix" values="0 0 0 0 0 0 0 0 0 0 0 0 0 0 0 0 0 0 127 0"/>
<feOffset dx="20.7285" dy="20.7285"/>
<feGaussianBlur stdDeviation="20.7285"/>
<feColorMatrix type="matrix" values="0 0 0 0 0.796078 0 0 0 0 0.796078 0 0 0 0 0.796078 0 0 0 0.74 0"/>
<feBlend mode="normal" in2="effect1_dropShadow" result="effect2_dropShadow"/>
<feBlend mode="normal" in="SourceGraphic" in2="effect2_dropShadow" result="shape"/>
</filter>
<filter id="filter18_dd" x="934.135" y="160.092" width="261.351" height="245.817" filterUnits="userSpaceOnUse" color-interpolation-filters="sRGB">
<feFlood flood-opacity="0" result="BackgroundImageFix"/>
<feColorMatrix in="SourceAlpha" type="matrix" values="0 0 0 0 0 0 0 0 0 0 0 0 0 0 0 0 0 0 127 0"/>
<feOffset dx="-20.7285" dy="-20.7285"/>
<feGaussianBlur stdDeviation="20.7285"/>
<feColorMatrix type="matrix" values="0 0 0 0 1 0 0 0 0 1 0 0 0 0 1 0 0 0 1 0"/>
<feBlend mode="normal" in2="BackgroundImageFix" result="effect1_dropShadow"/>
<feColorMatrix in="SourceAlpha" type="matrix" values="0 0 0 0 0 0 0 0 0 0 0 0 0 0 0 0 0 0 127 0"/>
<feOffset dx="20.7285" dy="20.7285"/>
<feGaussianBlur stdDeviation="20.7285"/>
<feColorMatrix type="matrix" values="0 0 0 0 0.796078 0 0 0 0 0.796078 0 0 0 0 0.796078 0 0 0 0.74 0"/>
<feBlend mode="normal" in2="effect1_dropShadow" result="effect2_dropShadow"/>
<feBlend mode="normal" in="SourceGraphic" in2="effect2_dropShadow" result="shape"/>
</filter>
<filter id="filter19_dd" x="1105.01" y="160.092" width="261.351" height="245.817" filterUnits="userSpaceOnUse" color-interpolation-filters="sRGB">
<feFlood flood-opacity="0" result="BackgroundImageFix"/>
<feColorMatrix in="SourceAlpha" type="matrix" values="0 0 0 0 0 0 0 0 0 0 0 0 0 0 0 0 0 0 127 0"/>
<feOffset dx="-20.7285" dy="-20.7285"/>
<feGaussianBlur stdDeviation="20.7285"/>
<feColorMatrix type="matrix" values="0 0 0 0 1 0 0 0 0 1 0 0 0 0 1 0 0 0 1 0"/>
<feBlend mode="normal" in2="BackgroundImageFix" result="effect1_dropShadow"/>
<feColorMatrix in="SourceAlpha" type="matrix" values="0 0 0 0 0 0 0 0 0 0 0 0 0 0 0 0 0 0 127 0"/>
<feOffset dx="20.7285" dy="20.7285"/>
<feGaussianBlur stdDeviation="20.7285"/>
<feColorMatrix type="matrix" values="0 0 0 0 0.796078 0 0 0 0 0.796078 0 0 0 0 0.796078 0 0 0 0.74 0"/>
<feBlend mode="normal" in2="effect1_dropShadow" result="effect2_dropShadow"/>
<feBlend mode="normal" in="SourceGraphic" in2="effect2_dropShadow" result="shape"/>
</filter>
<filter id="filter20_dd" x="204" y="54" width="176" height="161" filterUnits="userSpaceOnUse" color-interpolation-filters="sRGB">
<feFlood flood-opacity="0" result="BackgroundImageFix"/>
<feColorMatrix in="SourceAlpha" type="matrix" values="0 0 0 0 0 0 0 0 0 0 0 0 0 0 0 0 0 0 127 0"/>
<feOffset dx="-5" dy="-5"/>
<feGaussianBlur stdDeviation="7.5"/>
<feColorMatrix type="matrix" values="0 0 0 0 1 0 0 0 0 1 0 0 0 0 1 0 0 0 1 0"/>
<feBlend mode="normal" in2="BackgroundImageFix" result="effect1_dropShadow"/>
<feColorMatrix in="SourceAlpha" type="matrix" values="0 0 0 0 0 0 0 0 0 0 0 0 0 0 0 0 0 0 127 0"/>
<feOffset dx="5" dy="5"/>
<feGaussianBlur stdDeviation="7.5"/>
<feColorMatrix type="matrix" values="0 0 0 0 0.745098 0 0 0 0 0.745098 0 0 0 0 0.745098 0 0 0 1 0"/>
<feBlend mode="normal" in2="effect1_dropShadow" result="effect2_dropShadow"/>
<feBlend mode="normal" in="SourceGraphic" in2="effect2_dropShadow" result="shape"/>
</filter>
<clipPath id="clip0">
<rect width="1440" height="566" fill="white"/>
</clipPath>
</defs>
</svg>
